<?xml version="1.0" standalone="no"?>
<!DOCTYPE svg PUBLIC "-//W3C//DTD SVG 20010904//EN"
 "http://www.w3.org/TR/2001/REC-SVG-20010904/DTD/svg10.dtd">
<svg version="1.0" xmlns="http://www.w3.org/2000/svg"
 width="512.000000pt" height="512.000000pt" viewBox="0 0 512.000000 512.000000"
 preserveAspectRatio="xMidYMid meet">
<metadata>
Created by potrace 1.11, written by Peter Selinger 2001-2013
</metadata>
<g transform="translate(0.000000,512.000000) scale(0.100000,-0.100000)"
fill="#000000" stroke="none">
<path d="M22 5095 c-4 -5 -7 -99 -7 -207 l0 -198 630 0 c346 -1 662 -3 700 -5
87 -5 243 -21 295 -30 8 -1 40 -6 70 -11 30 -4 57 -8 60 -9 3 -1 23 -5 45 -9
205 -41 447 -110 655 -188 343 -128 768 -357 1002 -540 38 -30 53 -31 148 -13
57 11 68 13 123 20 31 4 58 12 58 19 2 15 1 17 -22 153 -11 65 -21 124 -21
131 -1 7 -15 23 -32 35 -17 12 -37 27 -45 35 -24 23 -269 182 -379 246 -500
289 -1133 500 -1677 560 -27 4 -75 9 -105 12 -99 11 -1491 10 -1498 -1z"/>
<path d="M17 4252 c-3 -6 -1 -383 2 -407 1 -7 211 -10 614 -11 722 0 793 -3
1022 -45 456 -84 914 -281 1305 -562 47 -33 87 -63 90 -67 3 -3 21 -17 40 -31
19 -15 46 -36 59 -48 26 -23 29 -23 116 -21 172 6 237 9 240 12 2 2 0 23 -5
48 -8 43 -14 90 -26 195 -6 59 -26 80 -204 214 -319 240 -690 433 -1080 561
-189 62 -473 125 -650 145 -30 3 -71 8 -90 11 -51 8 -1429 14 -1433 6z"/>
<path d="M4193 3813 c-2 -15 -28 -144 -37 -178 -2 -5 -6 -23 -10 -40 -44 -173
-127 -397 -216 -582 -382 -791 -1083 -1401 -1890 -1643 -113 -34 -103 -27
-226 -167 -95 -108 -107 -125 -98 -131 6 -4 61 -43 124 -87 73 -52 120 -79
134 -77 89 15 388 117 552 190 285 126 618 328 810 491 16 14 52 44 79 66 81
66 337 324 416 420 313 377 517 743 666 1193 65 200 68 174 -37 293 -86 98
-252 269 -259 269 -4 0 -7 -8 -8 -17z"/>
<path d="M991 3343 c-40 -43 -88 -93 -105 -111 l-31 -33 0 -1595 c0 -1412 2
-1594 15 -1595 21 -1 350 -1 380 0 l25 1 0 1594 0 1595 -31 33 c-17 18 -65 68
-105 111 l-75 78 -73 -78z"/>
<path d="M115 3307 l-105 -104 0 -1597 c0 -1513 1 -1596 18 -1597 26 -1 354
-1 380 0 l22 1 0 1596 0 1596 -105 105 -104 105 -106 -105z"/>
<path d="M4839 2973 c-213 -561 -554 -1075 -999 -1507 -491 -475 -1123 -819
-1788 -972 l-124 -29 -91 -104 c-51 -57 -100 -113 -109 -124 -21 -24 -22 -33
-5 -40 6 -3 62 -41 124 -85 l112 -80 108 24 c789 178 1527 579 2108 1144 103
100 213 216 275 290 30 36 57 67 60 70 3 3 21 25 40 50 19 25 43 54 53 65 23
25 159 217 219 310 89 138 159 260 229 400 l72 142 -50 100 c-54 105 -210 373
-219 373 -2 0 -9 -12 -15 -27z"/>
</g>
</svg>
