<?xml version="1.0" encoding="utf-8"?>
<!-- Generator: Adobe Illustrator 23.1.1, SVG Export Plug-In . SVG Version: 6.00 Build 0)  -->
<svg version="1.1" id="Layer_1" xmlns="http://www.w3.org/2000/svg" xmlns:xlink="http://www.w3.org/1999/xlink" x="0px" y="0px"
	 viewBox="0 0 475 301.2" style="enable-background:new 0 0 475 301.2;" xml:space="preserve">
<style type="text/css">
	.st0{clip-path:url(#SVGID_2_);}
	.st1{clip-path:url(#SVGID_4_);}
	.st2{fill:none;stroke:#F4C55C;stroke-width:0.96;stroke-miterlimit:10;}
	.st3{clip-path:url(#SVGID_6_);}
	.st4{fill:none;stroke:#F4C55C;stroke-width:0.95;stroke-miterlimit:10;}
</style>
<g>
	<g id="Design">
		<g>
			<defs>
				<path id="SVGID_1_" d="M0,297.9V104.4c0-105.5,85.5-191,191-191l0,0h283l0,0v384.5l0,0C474,297.9,0,297.9,0,297.9z"/>
			</defs>
			<clipPath id="SVGID_2_">
				<use xlink:href="#SVGID_1_"  style="overflow:visible;"/>
			</clipPath>
			<g class="st0">
				<g>
					<defs>
						<path id="SVGID_3_" d="M129.7-213.1c0,0,65,161.4,255.2,128.3l86.4,198.6l-34.9,277.9l-464.6-58.4l71.6-569.8L129.7-213.1z"/>
					</defs>
					<clipPath id="SVGID_4_">
						<use xlink:href="#SVGID_3_"  style="overflow:visible;"/>
					</clipPath>
					<g class="st1">
						<path class="st2" d="M449.8,230.8c-0.1,5-0.8,10-2,14.8c-2.5,9.6-7.4,18.4-14.1,25.7c-1.7,1.8-3.5,3.5-5.5,5.2
							c-1.9,1.6-3.8,3.1-5.9,4.4c-4.2,2.7-8.7,4.9-13.5,6.6c-4.7,1.6-9.6,2.7-14.5,3.2c-4.8,0.4-9.7,0.2-14.5-0.5
							c-9.9-1.6-19.3-5.7-27.3-11.8c-4.1-3.1-7.8-6.6-11-10.6c-1.6-1.9-3-3.9-4.3-6l-0.5-0.8c-0.2-0.2-0.3-0.4-0.4-0.6
							c-0.1-0.3-0.2-0.5-0.3-0.7c-0.1-0.2-0.3-0.5-0.5-0.7c-0.1-0.3-0.2-0.7-0.3-1c-1-2.5-2.3-6.7-3.3-13.6s-1.6-16.2-2.4-27.8
							c-0.8-13.8-2.3-27.6-4.5-41.2l-1.2-6.1c-0.4-2-0.8-4-1.4-6.2l-1.6-6.4c-0.6-2.2-1-4.2-1.8-6.5c-1.5-4.4-3-9-4.5-13.1
							s-3.3-8-5.1-12c-7.3-15.6-16.4-30.3-27.3-43.7c-10.9-13.4-23.3-25.4-37-35.8C203.3,14,151.4-0.9,99.3,3.8
							c-34.6,3-67.9,14.6-96.9,33.6C-12,46.8-25.2,58-37,70.5c-23.6,25.5-40.5,56.4-49.3,89.9c-8.8,33.5-9.2,68.6-1.2,102.2
							c4,16.8,10,33.1,18,48.5c8,15.3,17.8,29.6,29.1,42.5"/>
						<path class="st2" d="M462.1,192.3c3.1,6,5.4,12.3,7,18.8c1.5,6.6,2.3,13.3,2.2,20c-0.1,6.7-1,13.5-2.7,20
							c-5.2,19.7-17.5,36.7-34.5,47.9c-5.7,3.7-11.8,6.7-18.1,8.9c-6.4,2.2-13,3.7-19.7,4.3c-6.6,0.6-13.3,0.4-19.9-0.7
							c-13.4-2.2-26-7.7-36.8-15.9c-5.4-4.1-10.4-8.9-14.7-14.1c-2.1-2.6-4.1-5.3-5.9-8.2c-0.4-0.7-1-1.5-1.2-2s-0.5-1.1-0.8-1.6
							l-0.9-1.6c-0.2-0.6-0.5-1.2-0.7-1.8c-2-4.7-3.6-10.8-4.7-18.9s-1.8-17.9-2.5-29.3c-0.7-13-2.1-26-4.3-38.9l-1.1-5.5
							c-0.4-1.8-0.7-3.6-1.2-5.6c-1-3.8-1.9-7.6-3.1-11.5s-2.6-7.9-4-11.6s-3-7.2-4.6-10.7c-6.6-14-14.8-27.2-24.5-39.3
							c-9.8-12-20.9-22.8-33.2-32.2C194.7,34.4,148,21,101.2,25.2c-31,2.7-60.9,13.1-87,30.2C1.3,63.8-10.6,73.8-21.1,85.1
							c-43,46.4-60.1,111.1-45.5,172.6c3.6,15.1,9,29.7,16.2,43.5c7.2,13.7,16,26.5,26.2,38.2"/>
						<path class="st2" d="M466.8,161.5c5.6,6.4,10.4,13.4,14.3,20.9c3.9,7.5,6.8,15.5,8.8,23.7c1.9,8.3,2.9,16.7,2.8,25.2
							c-0.1,8.5-1.3,16.9-3.4,25.2c-6.5,24.8-22.1,46.4-43.6,60.4c-7.1,4.6-14.8,8.4-22.8,11.2c-16,5.6-33.2,7.2-50,4.5
							c-16.8-2.8-32.7-9.6-46.3-19.9c-6.8-5.1-13-11.1-18.4-17.7c-2.7-3.3-5.2-6.7-7.4-10.3c-0.5-0.9-1.2-1.8-1.6-2.6l-1.2-2.4
							l-1.3-2.4l-1.1-2.6c-3.1-7.8-5.2-15.9-6.2-24.2c-1.3-9.2-2-19.6-2.7-30.9c-0.7-12.3-2-24.5-4-36.6c-0.7-3.3-1.2-6.5-2-9.9
							s-1.6-6.7-2.7-10.1s-2.3-6.9-3.5-10.1s-2.6-6.4-4.1-9.5c-5.8-12.5-13.1-24.2-21.7-34.9c-8.7-10.6-18.6-20.2-29.5-28.6
							c-33.3-25.1-74.7-37-116.2-33.3C75.5,49,49,58.1,25.9,73.3c-11.5,7.5-22,16.4-31.4,26.5c-18.8,20.3-32.3,44.8-39.3,71.6
							c-7,26.7-7.3,54.7-1,81.5c3.2,13.4,8,26.4,14.3,38.6c6.4,12.2,14.2,23.6,23.2,33.9"/>
						<path class="st2" d="M482.9,147.3c6.7,7.7,12.5,16.2,17.3,25.2c4.7,9.1,8.3,18.7,10.6,28.7c2.3,10,3.5,20.2,3.4,30.4
							c-0.2,10.2-1.5,20.4-4.1,30.4c-5.2,19.9-15.3,38.2-29.2,53.2c-14,15.1-31.5,26.4-50.9,33.2c-19.4,6.8-40.2,8.6-60.5,5.4
							c-20.3-3.3-39.5-11.6-55.9-24c-8.2-6.2-15.6-13.3-22.1-21.3c-3.2-4-6.2-8.1-8.9-12.5c-0.6-1.1-1.4-2.2-2-3.2l-1.7-3.3
							c-0.6-1.1-1.2-2.2-1.7-3.3l-1.4-3.4c-7.8-18.3-9-39.7-10.5-61.9c-0.6-11.5-1.9-22.9-3.7-34.3c-0.6-2.9-1-5.8-1.8-8.7
							s-1.4-5.8-2.4-8.7s-1.9-5.8-3-8.6s-2.3-5.5-3.5-8.3c-5.1-10.9-11.5-21.1-19-30.4c-7.6-9.3-16.2-17.7-25.7-24.9
							c-29-21.9-65.1-32.2-101.4-29C80.9,70,57.8,78,37.6,91.2c-10,6.6-19.2,14.4-27.4,23.1C-6.2,132-17.9,153.4-24,176.7
							c-3,11.6-4.6,23.5-4.8,35.5c-0.1,12,1.2,24,3.9,35.6c2.8,11.7,7,23,12.5,33.6"/>
						<path class="st2" d="M499,133.1c7.9,9,14.7,18.9,20.3,29.6c5.5,10.7,9.7,21.9,12.5,33.6c11.3,47.6-1.9,97.7-35.1,133.5
							c-16.4,17.6-36.9,31-59.6,38.8c-22.7,8-47.1,10.1-70.9,6.3c-23.7-3.9-46.2-13.5-65.4-28.1c-9.6-7.2-18.2-15.6-25.8-24.8
							c-3.8-4.6-7.3-9.5-10.5-14.6c-0.8-1.3-1.6-2.5-2.3-3.9l-2.2-4.1c-0.7-1.4-1.5-2.7-2.1-4.1l-1.8-4.2
							c-4.5-11.2-7.6-22.9-9.1-34.8c-1.6-11.6-2.3-22.9-3-33.9c-0.6-10.7-1.7-21.3-3.4-31.9c-0.5-2.5-0.9-5.1-1.6-7.6s-1.2-5-2-7.3
							s-1.6-4.8-2.5-7.1s-2-4.7-3-7c-4.3-9.3-9.8-18-16.2-26c-6.5-7.9-13.9-15.1-22-21.3c-24.8-18.7-55.6-27.5-86.5-24.7
							c-10.2,0.9-20.2,3.1-29.9,6.4c-9.7,3.3-18.9,7.9-27.4,13.5C40.8,114.9,33,121.5,26,129c-14,15.1-24,33.4-29.2,53.2
							c-2.6,9.9-3.9,20.1-4.1,30.4C-7.4,222.8-6.3,233-4,243c2.4,10,5.9,19.6,10.6,28.7c4.8,9.1,10.6,17.5,17.3,25.2"/>
						<path class="st2" d="M515.1,118.9c9.1,10.3,16.9,21.7,23.2,33.9c6.3,12.2,11.1,25.2,14.3,38.6c3.1,13.4,4.7,27.1,4.5,40.8
							c-0.2,13.7-2.1,27.4-5.5,40.7c-10.6,40.3-35.8,75.3-70.7,98c-59.3,38.9-136.7,36.1-193.1-6.9c-10.9-8.2-20.8-17.8-29.5-28.4
							c-4.3-5.3-8.4-10.9-12-16.7c-0.9-1.5-1.8-2.8-2.7-4.5l-2.7-4.9c-0.9-1.7-1.8-3.3-2.6-5l-2.2-5.1c-5.2-12.8-8.7-26.3-10.5-40.1
							c-1.8-12.8-2.4-24.6-3.2-35.5c-0.5-9.9-1.6-19.8-3.1-29.6c-0.5-2.1-0.8-4.4-1.3-6.4s-1-4.1-1.6-6s-1.2-3.7-1.9-5.6
							s-1.6-3.9-2.5-5.8c-3.6-7.7-8.1-14.9-13.4-21.5c-5.4-6.6-11.5-12.5-18.3-17.7c-20.5-15.5-46.1-22.8-71.7-20.5
							c-8.4,0.7-16.8,2.5-24.8,5.3c-8,2.8-15.6,6.5-22.7,11.2c-7.1,4.7-13.6,10.2-19.4,16.4C18.2,169,8.9,204.4,16.9,238
							c2,8.2,4.9,16.2,8.8,23.7"/>
						<path class="st2" d="M531.2,104.7c10.2,11.7,19,24.5,26.1,38.2c7.1,13.8,12.6,28.4,16.2,43.5c18.5,77.8-13.9,158.8-80.9,202.5
							c-81.5,52.8-189.7,35.6-250.9-39.7c-4.9-6-9.4-12.3-13.5-18.9c-1-1.7-2-3.2-3.1-5.1l-3.1-5.8c-1-1.9-2-3.9-3-5.8l-2.5-5.9
							c-5.9-14.5-10-29.8-12-45.4c-1.9-13.9-2.6-26.3-3.4-37c-0.5-9.1-1.4-18.3-2.8-27.3c-0.4-1.7-0.6-3.7-1.1-5.2s-0.8-3.2-1.2-4.6
							s-0.9-2.6-1.4-4.1s-1.3-3.1-2-4.6c-2.9-6.1-6.4-11.8-10.7-17.1c-4.3-5.2-9.2-9.9-14.5-14c-5.4-4-11.2-7.4-17.3-10
							c-6.2-2.6-12.7-4.4-19.4-5.5c-6.7-1-13.4-1.2-20.2-0.7c-6.7,0.6-13.3,2-19.6,4.2c-6.3,2.2-12.4,5.2-18,8.8
							c-5.6,3.7-10.8,8.1-15.5,13c-9.1,9.9-15.6,21.9-19,34.9c-3.4,13.1-3.6,26.8-0.5,40"/>
						<path class="st2" d="M547.3,90.5c11.4,13,21.2,27.2,29.1,42.5c8,15.4,14,31.6,18,48.5c16.3,68.5-2.7,140.6-50.6,192.2
							c-5.9,6.3-12.1,12.2-18.7,17.8c-6.6,5.6-13.6,10.7-20.9,15.5c-74.5,48.7-171.6,45.3-242.5-8.6c-13.7-10.3-26-22.3-36.9-35.5
							c-5.5-6.7-10.5-13.7-15.1-21l-1.7-2.8c-0.6-0.9-1.1-1.8-1.7-3l-3.6-6.6c-1.1-2.2-2.3-4.5-3.4-6.7l-2.9-6.7
							c-6.6-16.2-11.1-33.3-13.4-50.6c-2.1-15.1-2.8-27.9-3.5-38.6c-0.4-8.4-1.3-16.7-2.5-25l-0.4-2.1c-0.1-0.7-0.2-1.3-0.4-2
							c-0.2-0.5-0.3-1.1-0.5-1.7c-0.1-0.5-0.2-1-0.4-1.5c-0.4-0.9-0.5-1.6-0.9-2.6s-0.9-2.2-1.4-3.4c-2.1-4.5-4.8-8.8-7.9-12.6
							c-3.2-3.8-6.8-7.3-10.7-10.4c-7.9-6-17.2-9.9-27.1-11.5c-5-0.7-10-0.9-15-0.5c-4.9,0.4-9.8,1.5-14.5,3.1
							c-4.7,1.6-9.1,3.8-13.2,6.5c-4.2,2.8-8,6-11.5,9.7c-6.7,7.3-11.6,16.1-14.1,25.6c-1.2,4.9-1.9,9.8-2,14.8c0,5,0.5,10,1.6,14.8
							c1.2,4.8,2.9,9.4,5.1,13.8c2.3,4.4,5.2,8.5,8.4,12.3"/>
					</g>
				</g>
			</g>
		</g>
		<g>
			<defs>
				<path id="SVGID_5_" d="M314.4,107.3c0,0,26.9,44.5,27.1,88.3s0.9,73,61.4,82.7c0,0,28-13.2,33.9-50.5l30.3-30.6L475,37.9
					L319.8,94.4L314.4,107.3z"/>
			</defs>
			<clipPath id="SVGID_6_">
				<use xlink:href="#SVGID_5_"  style="overflow:visible;"/>
			</clipPath>
			<g class="st3">
				<line class="st4" x1="465" y1="-30.2" x2="33.8" y2="440.5"/>
				<line class="st4" x1="481.7" y1="-15" x2="50.4" y2="455.8"/>
				<line class="st4" x1="498.4" y1="0.3" x2="67.1" y2="471"/>
				<line class="st4" x1="515" y1="15.6" x2="83.8" y2="486.3"/>
				<line class="st4" x1="531.7" y1="30.9" x2="100.5" y2="501.6"/>
				<line class="st4" x1="548.4" y1="46.2" x2="117.2" y2="516.9"/>
				<line class="st4" x1="565.1" y1="61.5" x2="133.9" y2="532.2"/>
				<line class="st4" x1="581.8" y1="76.8" x2="150.5" y2="547.5"/>
			</g>
		</g>
	</g>
</g>
</svg>
