<svg xmlns="http://www.w3.org/2000/svg" xmlns:xlink="http://www.w3.org/1999/xlink" viewBox="0 0 711.79 460.01"><defs><style>.cls-1,.cls-4{fill:none;}.cls-2{clip-path:url(#clip-path);}.cls-3{clip-path:url(#clip-path-2);}.cls-4{stroke:#d9d8d6;stroke-miterlimit:10;}</style><clipPath id="clip-path"><rect class="cls-1" x="41.27" y="38.94" width="192.58" height="233.61"/></clipPath><clipPath id="clip-path-2"><path class="cls-1" d="M431.87,252.23c26.76,106.41-58.61,192.28-58.61,192.28s-22.2-284.27-124.63-184.39c-68.69,67-213.91,55.17-213.91,55.17l28.85-98.38c27.19-29.63,92.62-28.4,103-67.26,14.64-55,61.95-100.9,109.41-82.32C350.74,96.6,410.39,166.85,431.87,252.23Z"/></clipPath></defs><title>Expert_Team_Swirl</title><g id="Layer_2" data-name="Layer 2"><g id="Design"><g class="cls-2"><g class="cls-3"><path class="cls-4" d="M522.86,136.54a67.76,67.76,0,0,1,12.49,9.21,64.56,64.56,0,0,1,9.76,11.83,66.38,66.38,0,0,1,6.66,14,68.07,68.07,0,0,1,3.1,15.24,62.62,62.62,0,0,1-5.1,30.1,75.73,75.73,0,0,1-3.59,6.94,61.69,61.69,0,0,1-4.31,6.35,63.66,63.66,0,0,1-11,11,65.12,65.12,0,0,1-13.22,8.09,61.46,61.46,0,0,1-14.41,4.43,64,64,0,0,1-30.84-2.27,65.46,65.46,0,0,1-14.4-6.64,57.7,57.7,0,0,1-6.3-4.44l-.74-.6c-.24-.19-.57-.42-.58-.5a4.89,4.89,0,0,0-.58-.62c-.21-.2-.45-.34-.68-.54a8.9,8.9,0,0,0-.66-.83c-1.86-2.06-4.52-5.78-7.85-12.28s-7.14-15.41-11.83-26.48-10.35-24.28-18.54-38.94L407,154.06c-1.09-1.85-2.11-3.66-3.44-5.61l-3.8-5.73c-1.32-1.91-2.48-3.76-4-5.71-2.91-3.81-5.95-7.78-8.93-11.32s-6-6.75-9.1-10A221,221,0,0,0,336,82a226.35,226.35,0,0,0-48.56-22.57A219.65,219.65,0,0,0,129.94,68.2a219.06,219.06,0,0,0-83.71,66.06A219.66,219.66,0,0,0,3.54,231.72,219.89,219.89,0,0,0,34.82,386.28,220.16,220.16,0,0,0,69,427.75a223.66,223.66,0,0,0,43.12,31.82"/><path class="cls-4" d="M533.83,117.09a90.4,90.4,0,0,1,16.86,12.45,86.2,86.2,0,0,1,13.25,16.06,89.2,89.2,0,0,1,9,18.91,90.52,90.52,0,0,1,4.17,20.57,85.08,85.08,0,0,1-17.6,58.79,85.47,85.47,0,0,1-14.79,14.9,87.07,87.07,0,0,1-17.87,10.92,83.92,83.92,0,0,1-19.73,6.07,87.89,87.89,0,0,1-60.82-11.91,79.93,79.93,0,0,1-8.55-6c-.61-.53-1.47-1.13-1.89-1.57s-.87-.87-1.32-1.29l-1.39-1.23c-.42-.51-.85-1-1.29-1.51-3.54-3.93-7.21-9.41-11.08-17s-7.88-17-12.52-27.94-10-23.41-17.47-36.76l-2.93-5c-1-1.68-1.92-3.34-3.1-5.07-2.31-3.43-4.42-6.81-7-10.21s-5.26-6.87-7.92-10-5.36-6.06-8.16-9A198.67,198.67,0,0,0,324.23,101a204,204,0,0,0-43.64-20.28,197.2,197.2,0,0,0-141.5,7.85,196.69,196.69,0,0,0-75.17,59.32,202.74,202.74,0,0,0-24.53,41.34A197.36,197.36,0,0,0,53.66,374.3a198,198,0,0,0,30.72,37.24,201.68,201.68,0,0,0,38.74,28.59"/><path class="cls-4" d="M544.8,97.65A113.37,113.37,0,0,1,566,113.32a108.85,108.85,0,0,1,16.74,20.31,111.76,111.76,0,0,1,11.35,23.82,113.35,113.35,0,0,1,5.25,25.89,107.41,107.41,0,0,1-22.21,74.2,107.91,107.91,0,0,1-18.61,18.75A106.18,106.18,0,0,1,511,297.75,108.75,108.75,0,0,1,458.68,294a110.31,110.31,0,0,1-24.1-11.13,100.92,100.92,0,0,1-10.78-7.6c-.81-.69-1.8-1.39-2.47-2.05l-2.06-2-2.1-1.92-1.93-2.2c-5.21-5.79-9.88-13-14.31-21.68s-8.61-18.58-13.2-29.39-9.66-22.54-16.4-34.58c-1.79-3-3.39-6-5.39-9s-3.91-6-6.14-9-4.56-5.95-6.89-8.74-4.75-5.36-7.23-7.94a176.42,176.42,0,0,0-33.25-26.82,181.57,181.57,0,0,0-38.72-18,174.82,174.82,0,0,0-125.47,7A174.21,174.21,0,0,0,81.6,161.51a175,175,0,0,0-34,77.67,177.72,177.72,0,0,0-1.91,42.72,180,180,0,0,0,8.48,41.85A177.94,177.94,0,0,0,72.5,362.32a175.54,175.54,0,0,0,27.22,33,179.89,179.89,0,0,0,34.37,25.36"/><path class="cls-4" d="M555.76,78.21a134.87,134.87,0,0,1,25.62,18.9,131,131,0,0,1,20.24,24.54,133.18,133.18,0,0,1,13.68,28.74,135,135,0,0,1,6.33,31.21,129.45,129.45,0,0,1-10.55,62.26,130.43,130.43,0,0,1-38.69,50,128.41,128.41,0,0,1-57.54,25.91,131.11,131.11,0,0,1-63.05-4.51,132.43,132.43,0,0,1-28.94-13.37,123.71,123.71,0,0,1-13-9.19c-1-.85-2.11-1.65-3-2.53l-2.8-2.61c-.93-.88-1.89-1.72-2.8-2.62L398.62,282c-13.87-15.35-22.42-35.9-31.43-57.23-4.55-10.68-9.31-21.66-15.32-32.39-1.59-2.66-3-5.37-4.76-8s-3.39-5.25-5.3-7.77-3.86-5-5.87-7.45-4.14-4.66-6.29-6.92a154,154,0,0,0-29-23.39,159.85,159.85,0,0,0-33.8-15.72,152.58,152.58,0,0,0-109.45,6.11,152,152,0,0,0-58.11,45.84,158.9,158.9,0,0,0-19,32A152.74,152.74,0,0,0,91.33,350.34a153.09,153.09,0,0,0,23.73,28.77,157.31,157.31,0,0,0,30,22.14"/><path class="cls-4" d="M566.73,58.76a157.55,157.55,0,0,1,30,22.14,152.71,152.71,0,0,1,23.73,28.77,155.62,155.62,0,0,1,16,33.66,157.46,157.46,0,0,1,7.4,36.52,152,152,0,0,1-12.36,73,152.79,152.79,0,0,1-45.3,58.5,150.87,150.87,0,0,1-67.51,30.38,155,155,0,0,1-107.58-20.88,145.65,145.65,0,0,1-15.26-10.76c-1.21-1-2.44-1.91-3.62-3l-3.54-3.28c-1.17-1.1-2.37-2.18-3.51-3.31L382,296.91a145.38,145.38,0,0,1-20.78-31.07c-5.55-10.83-10.06-21.75-14.56-32.31s-9-20.79-14.25-30.21c-1.38-2.29-2.64-4.71-4.12-6.9s-2.87-4.46-4.46-6.54-3.16-4.13-4.84-6.16-3.53-4-5.36-5.89a131.39,131.39,0,0,0-24.78-20A137.35,137.35,0,0,0,260,144.42a130.34,130.34,0,0,0-93.43,5.23A129.46,129.46,0,0,0,117,188.76a136.1,136.1,0,0,0-16.26,27.39,129.77,129.77,0,0,0-10.55,62.26,135.55,135.55,0,0,0,6.33,31.21,133.69,133.69,0,0,0,13.69,28.74,131,131,0,0,0,20.24,24.54A134.49,134.49,0,0,0,156,381.8"/><path class="cls-4" d="M577.69,39.32a179.89,179.89,0,0,1,34.37,25.36,175.59,175.59,0,0,1,27.23,33,175,175,0,0,1,24.93,123.14,174.25,174.25,0,0,1-34.11,77.72,176.35,176.35,0,0,1-66.54,52.53,173.05,173.05,0,0,1-41,12.62,177.23,177.23,0,0,1-123.16-23.86,169.56,169.56,0,0,1-17.51-12.35c-1.4-1.16-2.75-2.17-4.19-3.48l-4.28-3.94c-1.41-1.33-2.85-2.65-4.22-4l-3.85-4.25c-10.23-11.4-17.91-23.9-24-35.78s-10.8-23.33-15.25-33.76-8.62-19.91-13.18-28c-1.18-1.92-2.26-4.05-3.47-5.83s-2.36-3.68-3.62-5.31-2.46-3.22-3.82-4.87-2.92-3.28-4.43-4.87A109.14,109.14,0,0,0,277,176.8a115.05,115.05,0,0,0-24-11.14,111.5,111.5,0,0,0-25.84-5A108.11,108.11,0,0,0,175.68,170a107.23,107.23,0,0,0-41,32.37,114.12,114.12,0,0,0-13.5,22.75A108,108,0,0,0,129,326.38a108.9,108.9,0,0,0,16.75,20.31A113,113,0,0,0,167,362.36"/><path class="cls-4" d="M588.66,19.88a201.75,201.75,0,0,1,38.75,28.59,198,198,0,0,1,30.72,37.24,197.44,197.44,0,0,1,28.1,138.85,196.66,196.66,0,0,1-38.47,87.66,198.8,198.8,0,0,1-75,59.21,195.9,195.9,0,0,1-46.31,14.26,199.49,199.49,0,0,1-138.76-26.86,192,192,0,0,1-19.74-13.92c-1.6-1.33-3.08-2.43-4.77-4l-5-4.61c-1.65-1.56-3.33-3.11-4.92-4.7l-4.49-4.94a189.64,189.64,0,0,1-27.24-40.47c-6.66-13-11.52-24.92-15.93-35.22s-8.27-19-12.11-25.84c-1-1.56-1.88-3.4-2.83-4.77s-1.84-2.89-2.78-4.08-1.76-2.31-2.8-3.58-2.3-2.58-3.49-3.84a87.13,87.13,0,0,0-16.31-13.15,92.67,92.67,0,0,0-19-8.85A89.35,89.35,0,0,0,225.77,183a85.91,85.91,0,0,0-40.94,7.4A86.37,86.37,0,0,0,167,201.2,85.15,85.15,0,0,0,152.32,216a91.85,91.85,0,0,0-10.75,18.1,85.19,85.19,0,0,0-6.91,40.82,90.34,90.34,0,0,0,4.18,20.56,88.53,88.53,0,0,0,9,18.92,86.6,86.6,0,0,0,13.25,16.06A90.73,90.73,0,0,0,178,342.92"/><path class="cls-4" d="M599.63.43a224.44,224.44,0,0,1,43.12,31.83A220.18,220.18,0,0,1,677,73.73a219.66,219.66,0,0,1,31.28,154.56,222.51,222.51,0,0,1-15.41,51.48,228.21,228.21,0,0,1-12.28,23.83,217.2,217.2,0,0,1-15.14,22.29A220.11,220.11,0,0,1,376,377.83a212.1,212.1,0,0,1-22-15.51l-2.63-2.13c-.88-.73-1.7-1.37-2.72-2.3l-5.76-5.28c-1.89-1.78-3.81-3.57-5.63-5.39l-5.13-5.62c-13.57-15.13-23.27-31.14-30.47-45.17S289.39,269.92,285,259.75a253.27,253.27,0,0,0-11-23.66l-1.13-1.92a13.5,13.5,0,0,0-1.07-1.77c-.34-.49-.68-1-1-1.48a9.38,9.38,0,0,0-.94-1.38c-.66-.73-1.06-1.4-1.77-2.29s-1.69-1.89-2.56-2.82a64.89,64.89,0,0,0-12.08-9.73,71.08,71.08,0,0,0-14.11-6.57,67.54,67.54,0,0,0-15.05-2.89,68.52,68.52,0,0,0-15.45.88A66.89,66.89,0,0,0,194,210.74a63.78,63.78,0,0,0-13.2,8A62.54,62.54,0,0,0,170,229.64a69.38,69.38,0,0,0-8,13.45,62.77,62.77,0,0,0-5.09,30.1A68,68,0,0,0,160,288.43a66.42,66.42,0,0,0,6.67,14,64.1,64.1,0,0,0,9.75,11.83,68.09,68.09,0,0,0,12.49,9.21"/></g></g></g></g></svg>