<svg id="Layer_1" data-name="Layer 1" xmlns="http://www.w3.org/2000/svg" xmlns:xlink="http://www.w3.org/1999/xlink" viewBox="0 0 357.03 299.55"><defs><style>.cls-1,.cls-4{fill:none;}.cls-2{clip-path:url(#clip-path);}.cls-3{clip-path:url(#clip-path-2);}.cls-4{stroke:#d9d8d6;stroke-miterlimit:10;}</style><clipPath id="clip-path"><rect class="cls-1" y="-26.31" width="373.52" height="310.16"/></clipPath><clipPath id="clip-path-2"><path class="cls-1" d="M-34,142.78C-60.82,36.37,24.56-49.5,24.56-49.5S46.75,234.77,149.19,134.89c68.69-67,213.9-55.17,213.9-55.17L334.25,178.1c-27.19,29.63-92.62,28.4-103,67.26-14.64,55-61.94,100.9-109.41,82.32C47,298.41-12.58,228.16-34,142.78Z"/></clipPath></defs><title>Swirl_Art2</title><g id="Design"><g class="cls-2"><g class="cls-3"><path class="cls-4" d="M-125,258.47a67.79,67.79,0,0,1-12.49-9.21,64.36,64.36,0,0,1-9.75-11.83,66.6,66.6,0,0,1-6.67-14A67.82,67.82,0,0,1-157,208.19a62.69,62.69,0,0,1,5.09-30.1,74.71,74.71,0,0,1,3.6-6.94,59.45,59.45,0,0,1,4.3-6.35,63.62,63.62,0,0,1,11-11,63.93,63.93,0,0,1,13.22-8.09,60.56,60.56,0,0,1,14.41-4.43,63.9,63.9,0,0,1,30.84,2.27,65.21,65.21,0,0,1,14.39,6.64,57.73,57.73,0,0,1,6.31,4.44l.74.6a3.07,3.07,0,0,1,.58.5,4.84,4.84,0,0,0,.58.62c.21.2.44.34.68.53a7.53,7.53,0,0,0,.65.84c1.87,2.06,4.53,5.78,7.85,12.28s7.15,15.41,11.83,26.48a379.36,379.36,0,0,0,18.55,38.94L-9.2,241c1.1,1.86,2.12,3.67,3.44,5.62l3.81,5.73c1.32,1.91,2.47,3.76,4,5.71,2.92,3.81,6,7.78,8.94,11.32s6,6.75,9.09,10A221.42,221.42,0,0,0,61.79,313a226.62,226.62,0,0,0,48.56,22.57,219.58,219.58,0,0,0,241.23-74.79,225.13,225.13,0,0,0,27.28-46,219.48,219.48,0,0,0-50-247.53,225.25,225.25,0,0,0-43.16-31.82"/><path class="cls-4" d="M-136,277.92a90.46,90.46,0,0,1-16.86-12.45,86.14,86.14,0,0,1-13.25-16.06,89,89,0,0,1-9-18.92,90.76,90.76,0,0,1-4.17-20.56,85.06,85.06,0,0,1,17.6-58.79,85.19,85.19,0,0,1,14.8-14.9A86.68,86.68,0,0,1-129,125.32a83.63,83.63,0,0,1,19.73-6.07,86.33,86.33,0,0,1,41.57,3,87.51,87.51,0,0,1,19.25,8.88,78,78,0,0,1,8.54,6c.61.52,1.48,1.13,1.9,1.57s.87.87,1.32,1.29l1.38,1.23c.42.51.85,1,1.3,1.51,3.54,3.93,7.2,9.41,11.08,17s7.87,17,12.51,27.94A361.76,361.76,0,0,0,7.07,224.43l2.94,5c1,1.68,1.92,3.34,3.1,5.07,2.31,3.43,4.42,6.81,7,10.21s5.26,6.87,7.91,10,5.37,6.06,8.16,9A198.54,198.54,0,0,0,73.59,294a204.24,204.24,0,0,0,43.64,20.3A197.3,197.3,0,0,0,333.9,247.13a203.29,203.29,0,0,0,24.53-41.34,197.17,197.17,0,0,0-45-222.32A202,202,0,0,0,274.7-45.12"/><path class="cls-4" d="M-147,297.36a112.79,112.79,0,0,1-21.24-15.67A108.82,108.82,0,0,1-185,261.38a107.73,107.73,0,0,1-7.86-101.25,110.3,110.3,0,0,1,13.47-22.66,107.92,107.92,0,0,1,18.61-18.75,106.16,106.16,0,0,1,47.58-21.46A108.68,108.68,0,0,1-60.86,101a109.7,109.7,0,0,1,24.09,11.13A101.21,101.21,0,0,1-26,119.73c.81.69,1.79,1.39,2.47,2l2.06,2,2.09,1.93,1.93,2.2c5.22,5.79,9.89,13,14.32,21.68s8.6,18.57,13.19,29.39a353.49,353.49,0,0,0,16.4,34.58c1.8,3,3.4,6,5.4,9s3.9,6,6.14,9,4.55,6,6.89,8.75,4.75,5.36,7.22,7.94A176.65,176.65,0,0,0,85.38,275a182,182,0,0,0,38.72,18,175,175,0,0,0,192.12-59.58A181,181,0,0,0,338,196.82a174.67,174.67,0,0,0,5.69-125.56,178.17,178.17,0,0,0-18.36-38.57,175.6,175.6,0,0,0-27.23-33,180,180,0,0,0-34.37-25.36"/><path class="cls-4" d="M-158,316.8a134.58,134.58,0,0,1-25.61-18.9,130.89,130.89,0,0,1-20.24-24.54,133.67,133.67,0,0,1-13.69-28.74,135.66,135.66,0,0,1-6.33-31.21,129.8,129.8,0,0,1,10.55-62.26,130.65,130.65,0,0,1,38.69-50,128.44,128.44,0,0,1,57.54-25.91A131.08,131.08,0,0,1-54,79.79,133.15,133.15,0,0,1-25,93.16a123.93,123.93,0,0,1,13,9.19c1,.84,2.12,1.65,3,2.52l2.8,2.62c.93.88,1.89,1.72,2.8,2.62L-.8,113c13.87,15.35,22.41,35.9,31.42,57.23,4.55,10.68,9.32,21.66,15.33,32.39,1.59,2.66,3,5.37,4.75,8s3.39,5.25,5.3,7.77,3.86,5,5.87,7.45,4.14,4.66,6.29,6.92a154.39,154.39,0,0,0,29,23.39A160.25,160.25,0,0,0,131,271.83a152.65,152.65,0,0,0,167.56-51.95,158,158,0,0,0,19-32,152.17,152.17,0,0,0,12.37-73,157.59,157.59,0,0,0-7.41-36.52,156,156,0,0,0-16-33.66,152.56,152.56,0,0,0-23.8-28.8,157.84,157.84,0,0,0-30-22.14"/><path class="cls-4" d="M-168.91,336.25a157.42,157.42,0,0,1-30-22.14,153.41,153.41,0,0,1-23.73-28.77,152.41,152.41,0,0,1-11.07-143.17,153,153,0,0,1,45.3-58.5A150.78,150.78,0,0,1-120.9,53.29,154.94,154.94,0,0,1-13.32,74.17,146.22,146.22,0,0,1,2,84.93c1.2,1,2.43,1.91,3.61,3l3.55,3.28c1.17,1.1,2.37,2.18,3.51,3.31l3.2,3.57A145.48,145.48,0,0,1,36.6,129.16c5.55,10.83,10.06,21.75,14.56,32.31a317,317,0,0,0,14.26,30.21c1.38,2.29,2.63,4.71,4.11,6.9S72.4,203,74,205.12s3.16,4.13,4.84,6.16,3.53,4,5.36,5.89a131.48,131.48,0,0,0,24.79,20,137.3,137.3,0,0,0,28.87,13.43,130.31,130.31,0,0,0,143-44.34,136.37,136.37,0,0,0,16.26-27.39,129.71,129.71,0,0,0,10.54-62.27,135.05,135.05,0,0,0-6.33-31.2,133.16,133.16,0,0,0-13.68-28.74,130.89,130.89,0,0,0-20.24-24.54,134.76,134.76,0,0,0-25.62-18.9"/><path class="cls-4" d="M-179.88,355.69a180,180,0,0,1-34.37-25.36,175.54,175.54,0,0,1-27.22-33,177.74,177.74,0,0,1-18.37-38.57,180,180,0,0,1-8.48-41.85,174.42,174.42,0,0,1,36-120.44,176.58,176.58,0,0,1,66.54-52.53,173.05,173.05,0,0,1,41-12.62A177.27,177.27,0,0,1-1.61,55.18a169.25,169.25,0,0,1,17.5,12.35c1.4,1.16,2.76,2.17,4.19,3.48L24.37,75c1.41,1.33,2.85,2.65,4.21,4l3.85,4.25a167.43,167.43,0,0,1,24,35.78c6.1,11.92,10.79,23.33,15.24,33.76s8.62,19.91,13.18,28c1.18,1.92,2.26,4,3.48,5.83s2.36,3.68,3.62,5.31,2.46,3.22,3.82,4.87,2.91,3.27,4.42,4.87a109.55,109.55,0,0,0,20.55,16.56,115.52,115.52,0,0,0,24,11.14,107.75,107.75,0,0,0,118.43-36.69,113.78,113.78,0,0,0,13.51-22.75,107.39,107.39,0,0,0,8.73-51.54,113.24,113.24,0,0,0-5.25-25.89,111.73,111.73,0,0,0-11.35-23.82A108.92,108.92,0,0,0,252,48.32a113.28,113.28,0,0,0-21.2-15.67"/><path class="cls-4" d="M-190.84,375.13a201.59,201.59,0,0,1-38.75-28.59,197.79,197.79,0,0,1-30.72-37.24A200.21,200.21,0,0,1-281,265.81a202,202,0,0,1-9.57-47.17A196.83,196.83,0,0,1-250,82.79,197.73,197.73,0,0,1,10.13,36.18,191.3,191.3,0,0,1,29.88,50.1c1.6,1.33,3.07,2.43,4.76,4l5,4.61c1.66,1.56,3.34,3.11,4.93,4.7l4.49,4.93C61,81.61,69.65,95.87,76.3,108.82S87.84,133.7,92.24,144s8.28,19,12.11,25.84c1,1.56,1.88,3.4,2.84,4.77s1.84,2.89,2.78,4.08,1.76,2.31,2.79,3.58,2.3,2.58,3.49,3.84a86.81,86.81,0,0,0,16.32,13.15,92.5,92.5,0,0,0,19,8.85A85.31,85.31,0,0,0,245.49,179a91.07,91.07,0,0,0,10.75-18.1,84.86,84.86,0,0,0,6.91-40.82A85.24,85.24,0,0,0,250,80.6a86.14,86.14,0,0,0-13.25-16.06,90.46,90.46,0,0,0-16.86-12.45"/><path class="cls-4" d="M-201.81,394.57A223.79,223.79,0,0,1-245,362.75a220,220,0,0,1-34.22-41.47,219.33,219.33,0,0,1-15.78-206,227.17,227.17,0,0,1,12.28-23.83,215.76,215.76,0,0,1,15.15-22.29A218.62,218.62,0,0,1-26.48-5.15,222,222,0,0,1,21.86,17.18a213.08,213.08,0,0,1,22,15.51l2.63,2.13c.88.73,1.7,1.37,2.71,2.3L55,42.4c1.9,1.78,3.82,3.57,5.64,5.39l5.12,5.62C79.3,68.54,89,84.55,96.19,98.58s12.26,26.51,16.61,36.68,7.93,18.16,11,23.66l1.12,1.92a17.71,17.71,0,0,0,1.07,1.77c.35.49.68,1,1,1.48a8.67,8.67,0,0,0,1,1.38c.66.73,1.06,1.4,1.77,2.29s1.68,1.89,2.55,2.82a65.07,65.07,0,0,0,12.08,9.73,71.36,71.36,0,0,0,14.12,6.57,67.64,67.64,0,0,0,15,2.89,68.33,68.33,0,0,0,15.45-.88,67.21,67.21,0,0,0,14.86-4.62,64.3,64.3,0,0,0,13.19-8,62.19,62.19,0,0,0,10.78-10.91,68.91,68.91,0,0,0,8-13.45,62.58,62.58,0,0,0,5.1-30.1,68.28,68.28,0,0,0-3.1-15.24,66.57,66.57,0,0,0-6.66-14,64.42,64.42,0,0,0-9.76-11.83,67.79,67.79,0,0,0-12.49-9.21"/></g></g></g></svg>