<svg xmlns="http://www.w3.org/2000/svg" viewBox="0 0 67.39 28.06"><defs><style>.cls-1{fill:#fff7ea;}</style></defs><title>Asset 3</title><g id="Layer_2" data-name="Layer 2"><g id="Design"><polygon class="cls-1" points="2.31 10.5 1.16 9.34 0 10.5 0 28.06 2.31 28.06 2.31 10.5"/><polygon class="cls-1" points="6.96 10.51 5.81 9.29 4.65 10.51 4.65 28.06 6.96 28.06 6.96 10.51"/><path class="cls-1" d="M23.07,7A17.43,17.43,0,0,1,10.59,20.75L9.35,22.17l1.37,1A19.81,19.81,0,0,0,25,9.11,27.4,27.4,0,0,0,23.07,7Z"/><path class="cls-1" d="M26.67,11.57a23.05,23.05,0,0,1-4.73,7.63,21.24,21.24,0,0,1-11.37,6.36L9.35,27l1.37,1v0A24.6,24.6,0,0,0,28.14,14.19,25.83,25.83,0,0,0,26.67,11.57Z"/><path class="cls-1" d="M19.24,11.2,19,9.54A19.91,19.91,0,0,0,6.33,4.67H0S.05,7,0,7h6.3a17.56,17.56,0,0,1,11.13,4.3Z"/><path class="cls-1" d="M20.9,6.55h0l-.28-1.67A23.77,23.77,0,0,0,6.34,0H0V2.28H6.34A22.38,22.38,0,0,1,19.27,6.79C19.63,6.75,20.44,6.6,20.9,6.55Z"/><path class="cls-1" d="M35.74,4.63h1.35a2.76,2.76,0,0,1,.75.1,1.85,1.85,0,0,1,.68.32,1.74,1.74,0,0,1,.49.58,1.94,1.94,0,0,1,.19.91A1.75,1.75,0,0,1,38.52,8a2.09,2.09,0,0,1-.68.35,2.78,2.78,0,0,1-.75.11H35.74ZM37,7.85a2.39,2.39,0,0,0,.53-.06A1.3,1.3,0,0,0,38,7.58a1.14,1.14,0,0,0,.35-.4,1.35,1.35,0,0,0,.13-.64,1.43,1.43,0,0,0-.13-.67A1.18,1.18,0,0,0,38,5.46a1.27,1.27,0,0,0-.48-.19A2.39,2.39,0,0,0,37,5.21h-.56V7.85Z"/><path class="cls-1" d="M40.37,4.63h.68V8.45h-.68Z"/><path class="cls-1" d="M44.37,5.43a.78.78,0,0,0-.31-.24.92.92,0,0,0-.39-.09l-.24,0a.67.67,0,0,0-.21.09.41.41,0,0,0-.16.16.4.4,0,0,0-.07.24A.46.46,0,0,0,43.2,6a1,1,0,0,0,.23.11l.29.1.38.13a1.58,1.58,0,0,1,.36.2,1,1,0,0,1,.27.32.93.93,0,0,1,.11.47,1.25,1.25,0,0,1-.11.53,1.15,1.15,0,0,1-.31.38,1.23,1.23,0,0,1-.44.23,1.88,1.88,0,0,1-.53.07,2,2,0,0,1-.73-.13A1.45,1.45,0,0,1,42.14,8l.48-.45a.94.94,0,0,0,.38.3,1,1,0,0,0,.46.12l.24,0a.74.74,0,0,0,.22-.1.73.73,0,0,0,.17-.18.53.53,0,0,0,.06-.26.49.49,0,0,0-.07-.25A.63.63,0,0,0,43.89,7a1.46,1.46,0,0,0-.28-.13l-.34-.11-.35-.13a1.49,1.49,0,0,1-.31-.2,1,1,0,0,1-.22-.31,1,1,0,0,1-.09-.45.91.91,0,0,1,.13-.5,1.15,1.15,0,0,1,.31-.35,1.32,1.32,0,0,1,.45-.2,1.79,1.79,0,0,1,.51-.07,2.09,2.09,0,0,1,.59.1,1.6,1.6,0,0,1,.52.31Z"/><path class="cls-1" d="M47.12,4.63h.59l1.65,3.82h-.78l-.36-.88H46.57l-.35.88h-.76ZM48,7,47.4,5.44,46.8,7Z"/><path class="cls-1" d="M52.21,5.43a.82.82,0,0,0-.3-.24.93.93,0,0,0-.4-.09.85.85,0,0,0-.23,0,.73.73,0,0,0-.22.09.49.49,0,0,0-.16.16.51.51,0,0,0,0,.46A.57.57,0,0,0,51,6a1,1,0,0,0,.23.11l.3.1.38.13a1.58,1.58,0,0,1,.36.2,1,1,0,0,1,.27.32.94.94,0,0,1,.1.47,1.12,1.12,0,0,1-.11.53,1.26,1.26,0,0,1-.3.38,1.42,1.42,0,0,1-.44.23,1.9,1.9,0,0,1-.54.07,2,2,0,0,1-.73-.13A1.53,1.53,0,0,1,50,8l.49-.45a.91.91,0,0,0,.37.3A1,1,0,0,0,51.3,8l.25,0a.88.88,0,0,0,.22-.1.55.55,0,0,0,.16-.18A.53.53,0,0,0,52,7.4a.41.41,0,0,0-.07-.25A.53.53,0,0,0,51.73,7a1.46,1.46,0,0,0-.28-.13l-.34-.11-.34-.13a1.1,1.1,0,0,1-.31-.2.87.87,0,0,1-.22-.31,1,1,0,0,1-.09-.45,1,1,0,0,1,.12-.5,1.19,1.19,0,0,1,.32-.35A1.32,1.32,0,0,1,51,4.6a1.7,1.7,0,0,1,.51-.07,2.09,2.09,0,0,1,.59.1,1.6,1.6,0,0,1,.52.31Z"/><path class="cls-1" d="M54.69,5.22H53.52V4.63h3v.59H55.37V8.45h-.68Z"/><path class="cls-1" d="M57.52,4.63h2.53v.59H58.2v1H60v.57H58.2V7.84h1.94v.61H57.52Z"/><path class="cls-1" d="M61.34,4.63h1.33a2.24,2.24,0,0,1,.52.06,1.29,1.29,0,0,1,.45.18,1,1,0,0,1,.32.34,1,1,0,0,1,.12.51,1,1,0,0,1-.24.68,1.21,1.21,0,0,1-.64.35l1,1.7H63.4l-.88-1.62H62V8.45h-.68Zm1.24,1.64a1.46,1.46,0,0,0,.29,0,.79.79,0,0,0,.26-.08A.44.44,0,0,0,63.32,6a.49.49,0,0,0,.08-.28.5.5,0,0,0-.07-.26.69.69,0,0,0-.18-.16.92.92,0,0,0-.25-.08l-.26,0H62V6.27Z"/><path class="cls-1" d="M35.74,12h1.32a3.07,3.07,0,0,1,.53.05,1.3,1.3,0,0,1,.45.19,1.08,1.08,0,0,1,.2,1.53,1.21,1.21,0,0,1-.64.35l1,1.69H37.8l-.89-1.61h-.49v1.61h-.68ZM37,13.66l.29,0a.66.66,0,0,0,.26-.08.55.55,0,0,0,.2-.17.49.49,0,0,0,.07-.28.42.42,0,0,0-.07-.26.46.46,0,0,0-.18-.16.62.62,0,0,0-.24-.08l-.27,0h-.61v1.07Z"/><path class="cls-1" d="M39.66,12h2.53v.59H40.34v1h1.75v.57H40.34v1.08h1.95v.6H39.66Z"/><path class="cls-1" d="M46.22,12.91a.94.94,0,0,0-.4-.3,1.35,1.35,0,0,0-.47-.09,1.19,1.19,0,0,0-.54.11,1.37,1.37,0,0,0-.42.29,1.68,1.68,0,0,0-.27.45,1.59,1.59,0,0,0-.09.55,1.79,1.79,0,0,0,.09.57,1.28,1.28,0,0,0,.26.44,1.18,1.18,0,0,0,.41.29,1.32,1.32,0,0,0,.53.1,1.2,1.2,0,0,0,.55-.12,1.08,1.08,0,0,0,.38-.32l.55.38a1.76,1.76,0,0,1-.62.5,2.09,2.09,0,0,1-.86.17,2.18,2.18,0,0,1-.82-.15,1.89,1.89,0,0,1-.65-.41,1.87,1.87,0,0,1-.42-.64,2.12,2.12,0,0,1-.15-.81,2,2,0,0,1,.16-.83,1.79,1.79,0,0,1,.44-.63,1.87,1.87,0,0,1,.65-.4,2.43,2.43,0,0,1,.82-.14,1.69,1.69,0,0,1,.38,0,1.72,1.72,0,0,1,.39.1,2.21,2.21,0,0,1,.34.18,1.39,1.39,0,0,1,.28.26Z"/><path class="cls-1" d="M47.47,13.92a2.16,2.16,0,0,1,.15-.83,1.9,1.9,0,0,1,.43-.63,1.87,1.87,0,0,1,.65-.4,2.38,2.38,0,0,1,.81-.14,2.45,2.45,0,0,1,.83.14,1.87,1.87,0,0,1,.65.4,1.76,1.76,0,0,1,.43.63,2.16,2.16,0,0,1,.15.83,2.12,2.12,0,0,1-.15.81,1.86,1.86,0,0,1-1.08,1,2.23,2.23,0,0,1-.83.15,2.16,2.16,0,0,1-.81-.15,1.89,1.89,0,0,1-.65-.41,2.06,2.06,0,0,1-.43-.64A2.12,2.12,0,0,1,47.47,13.92Zm.74,0a1.69,1.69,0,0,0,.09.56,1.48,1.48,0,0,0,.27.44,1.25,1.25,0,0,0,.42.3,1.29,1.29,0,0,0,.53.1,1.32,1.32,0,0,0,.53-.1,1.25,1.25,0,0,0,.42-.3,1.16,1.16,0,0,0,.27-.44,1.69,1.69,0,0,0,.09-.56,1.59,1.59,0,0,0-.09-.55,1.29,1.29,0,0,0-.27-.45,1.22,1.22,0,0,0-.41-.29,1.38,1.38,0,0,0-1.08,0,1.22,1.22,0,0,0-.41.29,1.46,1.46,0,0,0-.27.45A1.59,1.59,0,0,0,48.21,13.92Z"/><path class="cls-1" d="M52.11,12h.76L53.92,15h0L55,12h.73l-1.53,3.81h-.59Z"/><path class="cls-1" d="M56.64,12h2.53v.59H57.32v1h1.75v.57H57.32v1.08h2v.6H56.64Z"/><path class="cls-1" d="M60.46,12h1.33a3,3,0,0,1,.52.05,1.3,1.3,0,0,1,.45.19,1,1,0,0,1,.32.34,1,1,0,0,1,.12.51,1,1,0,0,1-.24.68,1.18,1.18,0,0,1-.64.35l1,1.69h-.82l-.88-1.61h-.5v1.61h-.68Zm1.24,1.64.29,0a.72.72,0,0,0,.26-.08.52.52,0,0,0,.19-.17.49.49,0,0,0,.08-.28.5.5,0,0,0-.07-.26.55.55,0,0,0-.18-.16.61.61,0,0,0-.25-.08l-.26,0h-.62v1.07Z"/><path class="cls-1" d="M65.27,14.18,63.84,12h.83l1,1.6,1-1.6h.79L66,14.18v1.65h-.68Z"/><path class="cls-1" d="M37.68,20.2a.8.8,0,0,0-.3-.23,1,1,0,0,0-.4-.1.85.85,0,0,0-.23,0,.55.55,0,0,0-.22.1.49.49,0,0,0-.16.16.43.43,0,0,0-.06.24.51.51,0,0,0,0,.22.75.75,0,0,0,.15.16,1,1,0,0,0,.23.11l.3.1a3.43,3.43,0,0,1,.38.13,1.58,1.58,0,0,1,.36.2,1,1,0,0,1,.27.31,1,1,0,0,1,.1.47,1.13,1.13,0,0,1-.11.54,1.26,1.26,0,0,1-.3.38,1.4,1.4,0,0,1-.44.22,1.91,1.91,0,0,1-.54.08,2.06,2.06,0,0,1-.73-.14,1.41,1.41,0,0,1-.58-.4l.49-.46a1,1,0,0,0,.37.31,1,1,0,0,0,.46.11l.25,0a.62.62,0,0,0,.22-.1.44.44,0,0,0,.16-.17.53.53,0,0,0,.06-.26.39.39,0,0,0-.07-.25.55.55,0,0,0-.19-.18,1.47,1.47,0,0,0-.28-.12l-.34-.12a2.37,2.37,0,0,1-.34-.13.92.92,0,0,1-.31-.2,1,1,0,0,1-.23-.3,1.17,1.17,0,0,1-.08-.45,1,1,0,0,1,.12-.5,1.07,1.07,0,0,1,.32-.35,1.32,1.32,0,0,1,.45-.2,1.7,1.7,0,0,1,.51-.07,1.78,1.78,0,0,1,.59.1,1.53,1.53,0,0,1,.52.31Z"/><path class="cls-1" d="M39.37,19.41h2.52V20H40.05v1H41.8v.57H40.05v1.08H42v.6H39.37Z"/><path class="cls-1" d="M43.19,19.41h1.32a2.32,2.32,0,0,1,.53.05,1.3,1.3,0,0,1,.45.19.93.93,0,0,1,.31.34,1.13,1.13,0,0,1-.11,1.19,1.21,1.21,0,0,1-.64.35l1,1.69h-.82l-.89-1.61h-.49v1.61h-.68Zm1.23,1.64.29,0A1.07,1.07,0,0,0,45,21a.61.61,0,0,0,.19-.17.52.52,0,0,0,.07-.29.41.41,0,0,0-.07-.25.4.4,0,0,0-.18-.16.62.62,0,0,0-.24-.08,1.23,1.23,0,0,0-.27,0h-.61v1.07Z"/><path class="cls-1" d="M46.67,19.41h.76l1,2.93h0l1.06-2.93h.73l-1.53,3.81h-.58Z"/><path class="cls-1" d="M51.22,19.41h.68v3.81h-.68Z"/><path class="cls-1" d="M56,20.3a.83.83,0,0,0-.39-.3,1.35,1.35,0,0,0-.47-.09,1.33,1.33,0,0,0-.54.1,1.6,1.6,0,0,0-.42.3,1.25,1.25,0,0,0-.27.44,1.67,1.67,0,0,0-.09.55,1.7,1.7,0,0,0,.09.57,1.24,1.24,0,0,0,.26.45,1.22,1.22,0,0,0,.41.29,1.25,1.25,0,0,0,.53.1,1.16,1.16,0,0,0,.54-.12,1.12,1.12,0,0,0,.39-.32l.54.38a1.65,1.65,0,0,1-.62.49,1.91,1.91,0,0,1-.86.18,2.21,2.21,0,0,1-.82-.15,2,2,0,0,1-.64-.41,1.87,1.87,0,0,1-.42-.64,2.18,2.18,0,0,1-.15-.82,2.14,2.14,0,0,1,.15-.82,1.93,1.93,0,0,1,.44-.63,2,2,0,0,1,.66-.4,2.39,2.39,0,0,1,.82-.14l.38,0a2.38,2.38,0,0,1,.38.11,2.31,2.31,0,0,1,.35.18,1.11,1.11,0,0,1,.27.26Z"/><path class="cls-1" d="M57.54,19.41h2.52V20H58.21v1H60v.57H58.21v1.08h1.95v.6H57.54Z"/><path class="cls-1" d="M63.3,20.2A.8.8,0,0,0,63,20a1,1,0,0,0-.4-.1.91.91,0,0,0-.23,0,.62.62,0,0,0-.22.1.49.49,0,0,0-.16.16.43.43,0,0,0-.06.24.51.51,0,0,0,0,.22.75.75,0,0,0,.15.16,1,1,0,0,0,.23.11l.3.1a3.43,3.43,0,0,1,.38.13,1.58,1.58,0,0,1,.36.2,1,1,0,0,1,.27.31,1,1,0,0,1,.1.47,1.13,1.13,0,0,1-.11.54,1.26,1.26,0,0,1-.3.38,1.4,1.4,0,0,1-.44.22,1.91,1.91,0,0,1-.54.08,2.06,2.06,0,0,1-.73-.14,1.41,1.41,0,0,1-.58-.4l.49-.46a1,1,0,0,0,.37.31,1,1,0,0,0,.46.11l.25,0a.62.62,0,0,0,.22-.1.44.44,0,0,0,.16-.17.53.53,0,0,0,.06-.26.39.39,0,0,0-.07-.25.55.55,0,0,0-.19-.18,1.24,1.24,0,0,0-.28-.12l-.34-.12a2.37,2.37,0,0,1-.34-.13.92.92,0,0,1-.31-.2.84.84,0,0,1-.22-.3,1.13,1.13,0,0,1,0-.95,1.07,1.07,0,0,1,.32-.35,1.32,1.32,0,0,1,.45-.2,1.7,1.7,0,0,1,.51-.07,1.78,1.78,0,0,1,.59.1,1.44,1.44,0,0,1,.52.31Z"/></g></g></svg>