<svg xmlns="http://www.w3.org/2000/svg" viewBox="0 0 122.62 47.47"><defs><style>.cls-1{fill:#5e7361;}</style></defs><title>Asset 1</title><g id="Layer_2" data-name="Layer 2"><g id="Design"><polygon class="cls-1" points="3.91 17.77 1.96 15.8 0 17.77 0 47.47 3.91 47.47 3.91 17.77"/><polygon class="cls-1" points="11.78 17.78 9.82 15.71 7.87 17.78 7.87 47.47 11.78 47.47 11.78 17.78"/><path class="cls-1" d="M39,11.84A29.53,29.53,0,0,1,17.92,35.11l-2.1,2.39,2.32,1.63A33.52,33.52,0,0,0,42.3,15.42,46.26,46.26,0,0,0,39,11.84Z"/><path class="cls-1" d="M45.12,19.57a39,39,0,0,1-8,12.91A35.7,35.7,0,0,1,17.89,43.23l-2.07,2.36,2.32,1.63v0A41.61,41.61,0,0,0,47.6,24,42.71,42.71,0,0,0,45.12,19.57Z"/><path class="cls-1" d="M32.55,19l-.37-2.8A33.69,33.69,0,0,0,10.71,7.91H.05s0,3.9,0,3.9H10.71a29.76,29.76,0,0,1,18.83,7.26Z"/><path class="cls-1" d="M35.36,11.08h0l-.48-2.82C28.78,3.46,19.31-.21,10.73,0H.05V3.85H10.73A37.86,37.86,0,0,1,32.6,11.49C33.21,11.42,34.58,11.17,35.36,11.08Z"/><path class="cls-1" d="M60.82,5.38h2.64a5.63,5.63,0,0,1,1.46.19,3.62,3.62,0,0,1,1.33.62,3.4,3.4,0,0,1,1,1.15,3.85,3.85,0,0,1,.37,1.76A3.43,3.43,0,0,1,66.25,12a3.86,3.86,0,0,1-1.33.66,4.93,4.93,0,0,1-1.46.22H60.82Zm2.43,6.29a4.53,4.53,0,0,0,1-.12,2.61,2.61,0,0,0,.93-.41,2.07,2.07,0,0,0,.68-.78,2.61,2.61,0,0,0,.27-1.26,2.73,2.73,0,0,0-.27-1.3A2,2,0,0,0,65.21,7a2.42,2.42,0,0,0-.93-.39,5.15,5.15,0,0,0-1-.11H62.14v5.16Z"/><path class="cls-1" d="M69.86,5.38h1.33v7.45H69.86Z"/><path class="cls-1" d="M77.67,6.93a1.54,1.54,0,0,0-.59-.45,1.68,1.68,0,0,0-.77-.19,1.89,1.89,0,0,0-.47.06,1.57,1.57,0,0,0-.42.18,1,1,0,0,0-.31.31.89.89,0,0,0-.12.47.73.73,0,0,0,.11.43.92.92,0,0,0,.28.31,2.36,2.36,0,0,0,.45.22l.58.19.74.26a3.06,3.06,0,0,1,.71.39,2.22,2.22,0,0,1,.53.61,2,2,0,0,1,.2.92,2.32,2.32,0,0,1-.22,1,2.15,2.15,0,0,1-.59.74,2.5,2.5,0,0,1-.86.44,3.6,3.6,0,0,1-1,.15,3.93,3.93,0,0,1-1.42-.27A2.72,2.72,0,0,1,73.32,12l.94-.89a2.15,2.15,0,0,0,1.64.82,2.59,2.59,0,0,0,.47-.05,1.35,1.35,0,0,0,.44-.2,1.12,1.12,0,0,0,.31-.34,1,1,0,0,0,.12-.51.83.83,0,0,0-.13-.49,1.35,1.35,0,0,0-.37-.34,3.13,3.13,0,0,0-.55-.25l-.66-.22a6.22,6.22,0,0,1-.68-.25,2.38,2.38,0,0,1-.6-.39,1.86,1.86,0,0,1-.44-.59,2.09,2.09,0,0,1-.17-.88,1.9,1.9,0,0,1,.24-1,2,2,0,0,1,.62-.68,2.88,2.88,0,0,1,.87-.4,3.76,3.76,0,0,1,1-.13,3.36,3.36,0,0,1,1.15.2,2.76,2.76,0,0,1,1,.6Z"/><path class="cls-1" d="M83.05,5.38H84.2l3.21,7.45H85.9l-.7-1.71H82l-.67,1.71H79.81ZM84.74,10,83.59,7l-1.17,3Z"/><path class="cls-1" d="M93,6.93a1.54,1.54,0,0,0-.59-.45,1.68,1.68,0,0,0-.77-.19,1.89,1.89,0,0,0-.47.06,1.57,1.57,0,0,0-.42.18.92.92,0,0,0-.31.31.89.89,0,0,0-.12.47.81.81,0,0,0,.1.43,1,1,0,0,0,.29.31,2.36,2.36,0,0,0,.45.22l.58.19.74.26a3.06,3.06,0,0,1,.71.39,2.22,2.22,0,0,1,.53.61,2,2,0,0,1,.2.92,2.32,2.32,0,0,1-.22,1,2.15,2.15,0,0,1-.59.74,2.5,2.5,0,0,1-.86.44,3.6,3.6,0,0,1-1,.15,3.93,3.93,0,0,1-1.42-.27A2.72,2.72,0,0,1,88.64,12l.94-.89a2.11,2.11,0,0,0,1.63.82,2.61,2.61,0,0,0,.48-.05,1.35,1.35,0,0,0,.44-.2,1.12,1.12,0,0,0,.31-.34,1,1,0,0,0,.12-.51.83.83,0,0,0-.13-.49,1.51,1.51,0,0,0-.37-.34,3.13,3.13,0,0,0-.55-.25l-.66-.22a6.22,6.22,0,0,1-.68-.25,2.38,2.38,0,0,1-.6-.39,1.86,1.86,0,0,1-.44-.59A2.09,2.09,0,0,1,89,7.38a1.9,1.9,0,0,1,.24-1,2,2,0,0,1,.62-.68,2.88,2.88,0,0,1,.87-.4,3.76,3.76,0,0,1,1-.13,3.36,3.36,0,0,1,1.15.2,2.76,2.76,0,0,1,1,.6Z"/><path class="cls-1" d="M97.84,6.53H95.55V5.38h5.9V6.53H99.16v6.3H97.84Z"/><path class="cls-1" d="M103.35,5.38h4.94V6.53h-3.61v1.9h3.42V9.55h-3.42v2.1h3.8v1.18h-5.13Z"/><path class="cls-1" d="M110.82,5.38h2.59a4.31,4.31,0,0,1,1,.11,2.55,2.55,0,0,1,.88.36,2,2,0,0,1,.62.66,2.08,2.08,0,0,1,.23,1,1.93,1.93,0,0,1-.46,1.32,2.32,2.32,0,0,1-1.25.69l2,3.31h-1.6l-1.73-3.16h-1v3.16h-1.33Zm2.41,3.21a3.66,3.66,0,0,0,.57-.05,1.6,1.6,0,0,0,.51-.15,1.06,1.06,0,0,0,.37-.33,1,1,0,0,0,.15-.56.8.8,0,0,0-.14-.5,1,1,0,0,0-.34-.31,1.43,1.43,0,0,0-.48-.16,4.92,4.92,0,0,0-.52,0h-1.2v2.1Z"/><path class="cls-1" d="M60.82,19.8h2.59a4.9,4.9,0,0,1,1,.11,2.78,2.78,0,0,1,.88.37,2.08,2.08,0,0,1,.39,3,2.32,2.32,0,0,1-1.25.69l2,3.31h-1.6L63.11,24.1h-1v3.16H60.82ZM63.23,23a3.64,3.64,0,0,0,.57,0,1.61,1.61,0,0,0,.51-.16.9.9,0,0,0,.37-.33.92.92,0,0,0,.15-.55.87.87,0,0,0-.14-.5,1,1,0,0,0-.34-.31,1.51,1.51,0,0,0-.48-.16,3.2,3.2,0,0,0-.52,0H62.14V23Z"/><path class="cls-1" d="M68.48,19.8h4.94V21H69.81v1.9h3.42V24H69.81v2.11h3.8v1.18H68.48Z"/><path class="cls-1" d="M81.29,21.55a1.7,1.7,0,0,0-.77-.58,2.45,2.45,0,0,0-.93-.19,2.5,2.5,0,0,0-1.87.79,2.55,2.55,0,0,0-.52.87A2.87,2.87,0,0,0,77,23.51a3.33,3.33,0,0,0,.18,1.12,2.55,2.55,0,0,0,.51.86,2.29,2.29,0,0,0,.8.57,2.61,2.61,0,0,0,1,.2A2.27,2.27,0,0,0,80.6,26a2.11,2.11,0,0,0,.75-.63l1.06.75a3.36,3.36,0,0,1-1.21,1,4,4,0,0,1-1.67.34,4.43,4.43,0,0,1-1.61-.29,3.9,3.9,0,0,1-1.26-.81,3.72,3.72,0,0,1-.82-1.25,4.29,4.29,0,0,1-.29-1.59,4,4,0,0,1,.31-1.62,3.57,3.57,0,0,1,.85-1.22A3.7,3.7,0,0,1,78,19.89a4.64,4.64,0,0,1,1.6-.28,5,5,0,0,1,.75.07,4.61,4.61,0,0,1,.75.21,4.32,4.32,0,0,1,.67.36,2.15,2.15,0,0,1,.54.5Z"/><path class="cls-1" d="M83.73,23.51a4.18,4.18,0,0,1,.3-1.62,3.52,3.52,0,0,1,.83-1.22,3.71,3.71,0,0,1,1.26-.78,4.59,4.59,0,0,1,1.6-.28,4.65,4.65,0,0,1,1.61.28,3.57,3.57,0,0,1,1.27.78,3.41,3.41,0,0,1,.84,1.22,4.18,4.18,0,0,1,.3,1.62,4.09,4.09,0,0,1-.3,1.59,3.62,3.62,0,0,1-.84,1.25,4,4,0,0,1-1.27.81,4.43,4.43,0,0,1-1.61.29,4.38,4.38,0,0,1-1.6-.29,4.13,4.13,0,0,1-1.26-.81A3.74,3.74,0,0,1,84,25.1,4.09,4.09,0,0,1,83.73,23.51Zm1.44,0a3,3,0,0,0,.19,1.1,2.55,2.55,0,0,0,.52.87,2.43,2.43,0,0,0,.81.57,2.54,2.54,0,0,0,1,.21,2.51,2.51,0,0,0,1-.21,2.37,2.37,0,0,0,.82-.57,2.55,2.55,0,0,0,.52-.87,3,3,0,0,0,.19-1.1,2.87,2.87,0,0,0-.19-1.07,2.55,2.55,0,0,0-.52-.87,2.4,2.4,0,0,0-.81-.58,2.73,2.73,0,0,0-2.1,0,2.46,2.46,0,0,0-.8.58,2.55,2.55,0,0,0-.52.87A2.87,2.87,0,0,0,85.17,23.51Z"/><path class="cls-1" d="M92.79,19.8h1.49l2,5.74h0l2.08-5.74h1.43l-3,7.46H95.74Z"/><path class="cls-1" d="M101.64,19.8h4.94V21H103v1.9h3.42V24H103v2.11h3.8v1.18h-5.13Z"/><path class="cls-1" d="M109.1,19.8h2.59a4.9,4.9,0,0,1,1,.11,2.68,2.68,0,0,1,.88.37,1.87,1.87,0,0,1,.62.66,2.05,2.05,0,0,1,.23,1,1.88,1.88,0,0,1-.46,1.32,2.3,2.3,0,0,1-1.24.69l2,3.31h-1.6L111.4,24.1h-1v3.16H109.1ZM111.51,23a3.64,3.64,0,0,0,.57,0,1.61,1.61,0,0,0,.51-.16.92.92,0,0,0,.53-.88.87.87,0,0,0-.14-.5,1,1,0,0,0-.35-.31,1.43,1.43,0,0,0-.48-.16,3.12,3.12,0,0,0-.52,0h-1.2V23Z"/><path class="cls-1" d="M118.5,24l-2.81-4.23h1.63l1.87,3.14,1.9-3.14h1.53L119.82,24v3.23H118.5Z"/><path class="cls-1" d="M64.62,35.79a1.6,1.6,0,0,0-.6-.46,1.77,1.77,0,0,0-.77-.18,1.82,1.82,0,0,0-.46.06,1.13,1.13,0,0,0-.42.17,1,1,0,0,0-.31.32.81.81,0,0,0-.13.47.83.83,0,0,0,.11.43,1.06,1.06,0,0,0,.29.31,2.36,2.36,0,0,0,.45.22l.58.19c.23.07.48.16.74.26a3,3,0,0,1,.7.39,1.8,1.8,0,0,1,.74,1.53,2.25,2.25,0,0,1-.23,1,2.07,2.07,0,0,1-.59.75,2.59,2.59,0,0,1-.86.44,3.58,3.58,0,0,1-1,.15,3.85,3.85,0,0,1-1.42-.27,2.71,2.71,0,0,1-1.14-.8l1-.88a1.89,1.89,0,0,0,.73.6,2,2,0,0,0,.9.22,2,2,0,0,0,.47-.06,1.34,1.34,0,0,0,.44-.19,1.07,1.07,0,0,0,.32-.35,1,1,0,0,0,.12-.51.86.86,0,0,0-.14-.49,1.08,1.08,0,0,0-.37-.33,2.16,2.16,0,0,0-.55-.25l-.66-.22c-.22-.07-.45-.16-.67-.25a2.27,2.27,0,0,1-.61-.39,1.82,1.82,0,0,1-.6-1.48,2,2,0,0,1,.23-1,2.24,2.24,0,0,1,.62-.68,2.83,2.83,0,0,1,.88-.4,4.14,4.14,0,0,1,1-.13,3.68,3.68,0,0,1,1.16.2,3,3,0,0,1,1,.6Z"/><path class="cls-1" d="M67.9,34.23h4.94v1.16H69.23v1.9h3.42V38.4H69.23v2.11H73v1.18H67.9Z"/><path class="cls-1" d="M75.37,34.23H78a4.9,4.9,0,0,1,1,.11,2.78,2.78,0,0,1,.88.37,1.79,1.79,0,0,1,.62.66,2.05,2.05,0,0,1,.23,1,1.93,1.93,0,0,1-.46,1.32,2.32,2.32,0,0,1-1.25.69l2,3.31h-1.6l-1.73-3.16h-1v3.16H75.37Zm2.41,3.21a3.64,3.64,0,0,0,.57,0,1.61,1.61,0,0,0,.51-.16.9.9,0,0,0,.37-.33.94.94,0,0,0,.15-.55.87.87,0,0,0-.14-.5.92.92,0,0,0-.34-.31,1.43,1.43,0,0,0-.48-.16,3.2,3.2,0,0,0-.52,0H76.7v2.09Z"/><path class="cls-1" d="M82.16,34.23h1.48L85.7,40h0l2.07-5.74h1.44l-3,7.46H85.11Z"/><path class="cls-1" d="M91.06,34.23h1.32v7.46H91.06Z"/><path class="cls-1" d="M100.4,36a1.8,1.8,0,0,0-.77-.59,2.64,2.64,0,0,0-.93-.18,2.52,2.52,0,0,0-1,.21,2.4,2.4,0,0,0-.82.58,2.51,2.51,0,0,0-.52.86,2.92,2.92,0,0,0-.19,1.08,3.27,3.27,0,0,0,.18,1.11,2.5,2.5,0,0,0,.51.87,2.43,2.43,0,0,0,.8.57,2.61,2.61,0,0,0,1,.2,2.27,2.27,0,0,0,1.06-.24,2.11,2.11,0,0,0,.75-.63l1.06.75a3.33,3.33,0,0,1-1.21,1,3.8,3.8,0,0,1-1.67.35A4.43,4.43,0,0,1,97,41.59a3.9,3.9,0,0,1-1.26-.81A3.82,3.82,0,0,1,95,39.53a4.29,4.29,0,0,1-.29-1.59A4,4,0,0,1,95,36.32a3.71,3.71,0,0,1,.85-1.23,3.84,3.84,0,0,1,1.28-.77A4.41,4.41,0,0,1,98.7,34a4,4,0,0,1,.75.07,4.61,4.61,0,0,1,.75.21,4.27,4.27,0,0,1,.67.35,2.18,2.18,0,0,1,.54.51Z"/><path class="cls-1" d="M103.39,34.23h4.93v1.16h-3.61v1.9h3.42V38.4h-3.42v2.11h3.8v1.18h-5.12Z"/><path class="cls-1" d="M114.65,35.79a1.64,1.64,0,0,0-.59-.46,1.85,1.85,0,0,0-.78-.18,1.82,1.82,0,0,0-.46.06,1.28,1.28,0,0,0-.42.17,1,1,0,0,0-.31.32.89.89,0,0,0-.12.47.83.83,0,0,0,.1.43,1.06,1.06,0,0,0,.29.31,2.36,2.36,0,0,0,.45.22l.58.19c.24.07.48.16.74.26a3.06,3.06,0,0,1,.71.39,1.82,1.82,0,0,1,.52.61,1.84,1.84,0,0,1,.21.92,2.38,2.38,0,0,1-.22,1,2.31,2.31,0,0,1-.59.75,2.74,2.74,0,0,1-.87.44,3.53,3.53,0,0,1-1,.15,3.89,3.89,0,0,1-1.42-.27,2.84,2.84,0,0,1-1.14-.8l.95-.88a2,2,0,0,0,.73.6,2,2,0,0,0,1.38.16,1.28,1.28,0,0,0,.43-.19,1.07,1.07,0,0,0,.32-.35,1,1,0,0,0,.12-.51.86.86,0,0,0-.14-.49,1.08,1.08,0,0,0-.37-.33,2.25,2.25,0,0,0-.54-.25l-.67-.22c-.22-.07-.45-.16-.67-.25a2.44,2.44,0,0,1-.61-.39,1.91,1.91,0,0,1-.6-1.48,1.92,1.92,0,0,1,.24-1,2,2,0,0,1,.62-.68,2.67,2.67,0,0,1,.87-.4,4.22,4.22,0,0,1,1-.13,3.62,3.62,0,0,1,1.15.2,3.06,3.06,0,0,1,1,.6Z"/></g></g></svg>