<svg xmlns="http://www.w3.org/2000/svg" viewBox="0 0 92.47 92.23"><defs><style>.cls-1{fill:#fff7ea;}</style></defs><title>Asset 5</title><g id="Layer_2" data-name="Layer 2"><g id="Design"><polygon class="cls-1" points="7.59 34.51 3.8 30.7 0 34.51 0 92.23 7.59 92.23 7.59 34.51"/><polygon class="cls-1" points="22.89 34.55 19.09 30.52 15.29 34.55 15.29 92.23 22.89 92.23 22.89 34.55"/><path class="cls-1" d="M75.82,23C72.06,44.24,56,62.66,34.81,68.2l-4.08,4.66L35.24,76A65.16,65.16,0,0,0,82.18,30,88.92,88.92,0,0,0,75.82,23Z"/><path class="cls-1" d="M87.65,38A75.52,75.52,0,0,1,72.1,63.11,69.46,69.46,0,0,1,34.75,84l-4,4.57,4.52,3.18v.05A80.82,80.82,0,0,0,92.47,46.64,78,78,0,0,0,87.65,38Z"/><path class="cls-1" d="M63.24,36.82l-.72-5.45c-11-9.44-26.12-16-41.71-16H.11S.16,23,.11,23h20.7c13.67,0,26.93,5.89,36.57,14.11Z"/><path class="cls-1" d="M68.69,21.53h0L67.76,16C55.9,6.73,37.52-.41,20.84,0H.09V7.48H20.84c15.37,0,31.45,6.4,42.5,14.85C64.51,22.19,67.18,21.7,68.69,21.53Z"/></g></g></svg>