<svg id="Layer_1" data-name="Layer 1" xmlns="http://www.w3.org/2000/svg" xmlns:xlink="http://www.w3.org/1999/xlink" viewBox="0 0 172.79 208.55"><defs><style>.cls-1,.cls-4{fill:none;}.cls-2{clip-path:url(#clip-path);}.cls-3{clip-path:url(#clip-path-2);}.cls-4{stroke:#d9d8d6;stroke-miterlimit:10;}</style><clipPath id="clip-path"><rect class="cls-1" x="-21.73" y="-25.06" width="192.58" height="233.61"/></clipPath><clipPath id="clip-path-2"><path class="cls-1" d="M368.87,188.23c26.76,106.41-58.61,192.28-58.61,192.28S288.06,96.24,185.63,196.12c-68.69,67-213.91,55.17-213.91,55.17L.57,152.91c27.19-29.63,92.62-28.4,103-67.26,14.64-55,62-100.9,109.41-82.32C287.74,32.6,347.39,102.85,368.87,188.23Z"/></clipPath></defs><title>right_swirl</title><g id="Design"><g class="cls-2"><g class="cls-3"><path class="cls-4" d="M459.86,72.54a67.79,67.79,0,0,1,12.49,9.21,64.42,64.42,0,0,1,9.76,11.83,66.57,66.57,0,0,1,6.66,14,68.28,68.28,0,0,1,3.1,15.24,62.58,62.58,0,0,1-5.1,30.1,75.9,75.9,0,0,1-3.59,6.94,61.63,61.63,0,0,1-4.31,6.35,63.62,63.62,0,0,1-11,11,65.35,65.35,0,0,1-13.22,8.09,61.49,61.49,0,0,1-14.41,4.43,63.9,63.9,0,0,1-30.84-2.27,65.29,65.29,0,0,1-14.4-6.64,57.61,57.61,0,0,1-6.3-4.44l-.74-.6c-.24-.19-.57-.42-.58-.5a4.84,4.84,0,0,0-.58-.62c-.21-.2-.45-.34-.68-.54a7.51,7.51,0,0,0-.66-.83c-1.86-2.06-4.52-5.78-7.85-12.28s-7.14-15.41-11.83-26.48a381.17,381.17,0,0,0-18.54-38.94L344,90.06c-1.09-1.85-2.11-3.66-3.44-5.61l-3.8-5.73c-1.32-1.91-2.48-3.76-4-5.71-2.91-3.81-5.95-7.78-8.93-11.32s-6-6.75-9.1-10A220.78,220.78,0,0,0,273,18,226.62,226.62,0,0,0,224.44-4.57,219.57,219.57,0,0,0,6,363.75a223.53,223.53,0,0,0,43.12,31.82"/><path class="cls-4" d="M470.83,53.09a90.46,90.46,0,0,1,16.86,12.45A86.14,86.14,0,0,1,500.94,81.6a89.6,89.6,0,0,1,9,18.91,90.73,90.73,0,0,1,4.17,20.57,85.39,85.39,0,0,1-32.39,73.69,87.21,87.21,0,0,1-17.87,10.92,83.63,83.63,0,0,1-19.73,6.07,87.88,87.88,0,0,1-60.82-11.91,80.51,80.51,0,0,1-8.55-6c-.61-.53-1.47-1.13-1.89-1.57s-.87-.87-1.32-1.29l-1.39-1.23c-.42-.51-.85-1-1.29-1.51-3.54-3.93-7.21-9.41-11.08-17s-7.88-17-12.52-27.94a361.76,361.76,0,0,0-17.47-36.76l-2.93-5c-1-1.68-1.92-3.34-3.1-5.07-2.31-3.43-4.42-6.81-7-10.21s-5.26-6.87-7.92-10-5.36-6.06-8.16-9A198.7,198.7,0,0,0,261.23,37a203.69,203.69,0,0,0-43.64-20.28A197.24,197.24,0,0,0,.92,83.89a202.84,202.84,0,0,0-24.53,41.34,197.18,197.18,0,0,0,45,222.31,201.94,201.94,0,0,0,38.74,28.59"/><path class="cls-4" d="M481.8,33.65A113.28,113.28,0,0,1,503,49.32a109.1,109.1,0,0,1,16.74,20.31,111.73,111.73,0,0,1,11.35,23.82,113.24,113.24,0,0,1,5.25,25.89,107.69,107.69,0,0,1-40.82,92.95A106.16,106.16,0,0,1,448,233.75,108.73,108.73,0,0,1,395.68,230a110.45,110.45,0,0,1-24.1-11.13,100.08,100.08,0,0,1-10.78-7.6c-.81-.69-1.8-1.39-2.47-2.05l-2.06-2-2.1-1.92-1.93-2.2a100.38,100.38,0,0,1-14.31-21.68c-4.43-8.68-8.61-18.58-13.2-29.39a344.64,344.64,0,0,0-16.4-34.58c-1.79-3-3.39-6-5.39-9s-3.91-6-6.14-9-4.56-6-6.89-8.74-4.75-5.36-7.23-7.94A176.65,176.65,0,0,0,249.43,56a181.76,181.76,0,0,0-38.72-18A174.88,174.88,0,0,0-15.4,175.18a177.67,177.67,0,0,0-1.91,42.72,180,180,0,0,0,8.48,41.85A177.6,177.6,0,0,0,9.5,298.32a175.54,175.54,0,0,0,27.22,33,180,180,0,0,0,34.37,25.36"/><path class="cls-4" d="M492.76,14.21a134.76,134.76,0,0,1,25.62,18.9,130.89,130.89,0,0,1,20.24,24.54A133.16,133.16,0,0,1,552.3,86.39a135.13,135.13,0,0,1,6.33,31.21,130.06,130.06,0,0,1-49.24,112.26,128.44,128.44,0,0,1-57.54,25.91,131.16,131.16,0,0,1-63.05-4.51,132.39,132.39,0,0,1-28.94-13.37,122.9,122.9,0,0,1-13-9.19c-1-.85-2.11-1.65-3-2.53l-2.8-2.61c-.93-.88-1.89-1.72-2.8-2.62L335.62,218c-13.87-15.35-22.42-35.9-31.43-57.23-4.55-10.68-9.31-21.66-15.32-32.39-1.59-2.66-3-5.37-4.76-8s-3.39-5.25-5.3-7.77-3.86-5-5.87-7.45-4.14-4.66-6.29-6.92a153.68,153.68,0,0,0-29-23.39,159.81,159.81,0,0,0-33.8-15.72,152.65,152.65,0,0,0-167.56,52,159.45,159.45,0,0,0-19,32,152.58,152.58,0,0,0,34.77,172,157.42,157.42,0,0,0,30,22.14"/><path class="cls-4" d="M503.73-5.24a157.84,157.84,0,0,1,30,22.14,152.33,152.33,0,0,1,23.73,28.77,156,156,0,0,1,16,33.66,157.57,157.57,0,0,1,7.4,36.52,152.21,152.21,0,0,1-57.66,131.5,150.78,150.78,0,0,1-67.51,30.38,155,155,0,0,1-107.58-20.88,146.09,146.09,0,0,1-15.26-10.76c-1.21-1-2.44-1.91-3.62-3l-3.54-3.28c-1.17-1.1-2.37-2.18-3.51-3.31L319,232.91a145.48,145.48,0,0,1-20.78-31.07c-5.55-10.83-10.06-21.75-14.56-32.31a319.46,319.46,0,0,0-14.25-30.21c-1.38-2.29-2.64-4.71-4.12-6.9s-2.87-4.46-4.46-6.54-3.16-4.13-4.84-6.16-3.53-4-5.36-5.89a131.42,131.42,0,0,0-24.78-20A137.58,137.58,0,0,0,197,80.42,130.29,130.29,0,0,0,54,124.76a136.37,136.37,0,0,0-16.26,27.39,129.8,129.8,0,0,0-10.55,62.26,135.66,135.66,0,0,0,6.33,31.21,133.67,133.67,0,0,0,13.69,28.74A130.89,130.89,0,0,0,67.45,298.9,134.6,134.6,0,0,0,93,317.8"/><path class="cls-4" d="M514.69-24.68A180,180,0,0,1,549.06.68a174.7,174.7,0,0,1,18.05,233.86,176.38,176.38,0,0,1-66.54,52.53,173.05,173.05,0,0,1-41,12.62,177.23,177.23,0,0,1-123.16-23.86,169.38,169.38,0,0,1-17.51-12.35c-1.4-1.16-2.75-2.17-4.19-3.48l-4.28-3.94c-1.41-1.33-2.85-2.65-4.22-4l-3.85-4.25c-10.23-11.4-17.91-23.9-24-35.78s-10.8-23.33-15.25-33.76-8.62-19.91-13.18-28c-1.18-1.92-2.26-4.05-3.47-5.83s-2.36-3.68-3.62-5.31-2.46-3.22-3.82-4.87-2.92-3.28-4.43-4.87A109.65,109.65,0,0,0,214,112.8a115.28,115.28,0,0,0-24-11.14,111.56,111.56,0,0,0-25.84-5,108,108,0,0,0-92.48,41.71,113.73,113.73,0,0,0-13.5,22.75A108,108,0,0,0,66,262.38a109.16,109.16,0,0,0,16.75,20.31A113.18,113.18,0,0,0,104,298.36"/><path class="cls-4" d="M525.66-44.12a202,202,0,0,1,38.75,28.59,197,197,0,0,1,20.35,263.75,198.83,198.83,0,0,1-75,59.21,196,196,0,0,1-46.31,14.26,199.48,199.48,0,0,1-138.76-26.86A191.17,191.17,0,0,1,305,280.91c-1.6-1.33-3.08-2.43-4.77-4l-5-4.61c-1.65-1.56-3.33-3.11-4.92-4.7l-4.49-4.94a189.7,189.7,0,0,1-27.24-40.47c-6.66-13-11.52-24.92-15.93-35.22s-8.27-19-12.11-25.84c-1-1.56-1.88-3.4-2.83-4.77s-1.84-2.89-2.78-4.08-1.76-2.31-2.8-3.58-2.3-2.58-3.49-3.84a87.14,87.14,0,0,0-16.31-13.15,92.5,92.5,0,0,0-19-8.85A89.49,89.49,0,0,0,162.77,119,86,86,0,0,0,104,137.2,85,85,0,0,0,89.32,152a91.55,91.55,0,0,0-10.75,18.1,85.22,85.22,0,0,0-6.91,40.82,90.23,90.23,0,0,0,4.18,20.56,88.48,88.48,0,0,0,9,18.92,86.14,86.14,0,0,0,13.25,16.06A90.86,90.86,0,0,0,115,278.92"/><path class="cls-4" d="M536.63-63.57a224.72,224.72,0,0,1,43.12,31.83,219.33,219.33,0,0,1,65.53,196,222.41,222.41,0,0,1-15.41,51.48,227.17,227.17,0,0,1-12.28,23.83,217.26,217.26,0,0,1-15.14,22.29A220.11,220.11,0,0,1,313,313.83a213.08,213.08,0,0,1-22-15.51l-2.63-2.13c-.88-.73-1.7-1.37-2.72-2.3l-5.76-5.28c-1.89-1.78-3.81-3.57-5.63-5.39l-5.13-5.62c-13.57-15.13-23.27-31.14-30.47-45.17S226.39,205.92,222,195.75a253.81,253.81,0,0,0-11-23.66l-1.13-1.92a13.22,13.22,0,0,0-1.07-1.77c-.34-.49-.68-1-1-1.48a9.32,9.32,0,0,0-.94-1.38c-.66-.73-1.06-1.4-1.77-2.29s-1.69-1.89-2.56-2.82a65.07,65.07,0,0,0-12.08-9.73,71.28,71.28,0,0,0-14.11-6.57,67.64,67.64,0,0,0-15.05-2.89,68.33,68.33,0,0,0-15.45.88A67,67,0,0,0,131,146.74a63.67,63.67,0,0,0-13.2,8,62.94,62.94,0,0,0-10.8,10.9,69.21,69.21,0,0,0-8,13.45,62.69,62.69,0,0,0-5.09,30.1A67.82,67.82,0,0,0,97,224.43a66.6,66.6,0,0,0,6.67,14,64.36,64.36,0,0,0,9.75,11.83,67.79,67.79,0,0,0,12.49,9.21"/></g></g></g></svg>