<svg id="Design" xmlns="http://www.w3.org/2000/svg" xmlns:xlink="http://www.w3.org/1999/xlink" width="564.29" height="563.89" viewBox="0 0 564.29 563.89"><title>logo</title><g style="clip-path:url(#clip-path)"><path d="M193.1,494.41l-.59-.57a931.76,931.76,0,0,1-114.9-20.7v.58l95.51,70.77,120.36,19.4.86-.86a943.77,943.77,0,0,1-99.84-68.61Z" style="fill:#e9edf5"/><path d="M69.93,193.2l.13-1.42A941,941,0,0,1,90.65,76.63h-.56L19.41,172.41,0,292.77l.85.83a937.88,937.88,0,0,1,68.59-99.82Z" style="fill:#e9edf5"/><path d="M371.09,69.89l1.43.16c38.25,4.51,73.56,10.93,115.15,21v-.58L391.9,19.4,271.52,0l-.86.83c36.48,22,69.46,44.51,99.86,68.62Z" style="fill:#e9edf5"/><path d="M493.13,369.39l-.64.57c-5.18,38.19-12.36,74.07-23.14,115.47h.57l72.91-95.22,21.45-120-.8-.85C540.87,305.46,517.77,338,493.16,368Z" style="fill:#e9edf5"/><path d="M208.11,489.46a955.36,955.36,0,0,0,92.23,62.49l62.8-62.36A780.13,780.13,0,0,1,208.11,489.46Z" style="fill:#e9edf5"/><path d="M71.87,209.1a955.32,955.32,0,0,0-62.5,92.23l62.38,62.81A779.88,779.88,0,0,1,71.87,209.1Z" style="fill:#e9edf5"/><path d="M354.38,71a965.55,965.55,0,0,0-92.25-62.5L199.32,70.9A778.41,778.41,0,0,1,354.38,71Z" style="fill:#e9edf5"/><path d="M489.72,353.08a961.83,961.83,0,0,0,62.51-92.24L489.83,198A777.91,777.91,0,0,1,489.72,353.08Z" style="fill:#e9edf5"/><path d="M72.92,369.19l3.85,90.75A937,937,0,0,0,183,479.8,785.58,785.58,0,0,1,72.92,369.19Z" style="fill:#e9edf5"/><path d="M193,72.19l-90.85,3.6A945.28,945.28,0,0,0,82.37,182.31,784.47,784.47,0,0,1,193,72.19Z" style="fill:#e9edf5"/><path d="M488.68,193l-3.6-90.42A943.4,943.4,0,0,0,378.57,82.37,785.83,785.83,0,0,1,488.68,193Z" style="fill:#e9edf5"/><path d="M366.9,486.54l90.24-2.91a953.92,953.92,0,0,0,20.37-107.17A786.1,786.1,0,0,1,366.9,486.54Z" style="fill:#e9edf5"/></g></svg>
