<svg
  xmlns="http://www.w3.org/2000/svg"
  xmlns:xlink="http://www.w3.org/1999/xlink">
  <defs>
    <symbol id="brand" viewBox="0 0 221.98 51">
      <title>Brand</title>
      <path d="M106.37,45.18l-1.09,1.09a.91.91,0,0,1-.66.28h-3.71a.91.91,0,0,1-.66-.28l-1.13-1.13,1.06-1.08.89.89a.25.25,0,0,0,.19.08h3a.25.25,0,0,0,.19-.08l.52-.52a.26.26,0,0,0,.08-.19V43.4a.28.28,0,0,0-.25-.26L100,42.5a1.07,1.07,0,0,1-.92-1V39.72a.91.91,0,0,1,.28-.66L100.48,38a.91.91,0,0,1,.66-.28h3.71a.91.91,0,0,1,.66.28l1.13,1.13-1.06,1.08-.89-.89a.24.24,0,0,0-.19-.08h-3a.24.24,0,0,0-.19.08l-.52.52a.27.27,0,0,0-.08.19v.85a.27.27,0,0,0,.24.27l4.78.64a1.07,1.07,0,0,1,.92,1v1.74A.91.91,0,0,1,106.37,45.18Z" style="fill:#93a7cb"/>
      <path d="M118.27,45.18l-1.09,1.09a.91.91,0,0,1-.66.28H113a.91.91,0,0,1-.66-.28l-1.09-1.09a.91.91,0,0,1-.28-.66v-4.8a.91.91,0,0,1,.28-.66L112.38,38a.91.91,0,0,1,.66-.28h3.47a.91.91,0,0,1,.66.28l1.09,1.09a.91.91,0,0,1,.28.66v4.8A.91.91,0,0,1,118.27,45.18ZM117,40a.26.26,0,0,0-.08-.19l-.52-.52a.24.24,0,0,0-.19-.08h-2.78a.24.24,0,0,0-.19.08l-.52.52a.27.27,0,0,0-.08.19v4.26a.27.27,0,0,0,.08.19l.52.52a.24.24,0,0,0,.19.08h2.78a.25.25,0,0,0,.19-.08l.52-.52a.26.26,0,0,0,.08-.19Z" style="fill:#93a7cb"/>
      <path d="M123.47,46.55V37.69h1.59V45h4.34v1.51Z" style="fill:#93a7cb"/>
      <path d="M139.58,45.18l-1.09,1.09a.91.91,0,0,1-.66.28h-2.67a.91.91,0,0,1-.66-.28l-1.09-1.09a.91.91,0,0,1-.28-.66V37.69h1.59v6.56a.27.27,0,0,0,.08.19l.52.52a.24.24,0,0,0,.19.08h2a.24.24,0,0,0,.19-.08l.52-.52a.27.27,0,0,0,.08-.19V37.69h1.59v6.83A.91.91,0,0,1,139.58,45.18Z" style="fill:#93a7cb"/>
      <path d="M148,39.21v7.34h-1.59V39.21h-2.56V37.69h6.72v1.51Z" style="fill:#93a7cb"/>
      <path d="M153.82,46.55V45.14h1.59v-6h-1.59V37.69h4.78V39.1H157v6h1.59v1.41Z" style="fill:#93a7cb"/>
      <path d="M169.85,45.18l-1.09,1.09a.91.91,0,0,1-.66.28h-3.47a.91.91,0,0,1-.66-.28l-1.09-1.09a.91.91,0,0,1-.28-.66v-4.8a.91.91,0,0,1,.28-.66L164,38a.91.91,0,0,1,.66-.28h3.47a.91.91,0,0,1,.66.28l1.09,1.09a.91.91,0,0,1,.28.66v4.8A.91.91,0,0,1,169.85,45.18ZM168.54,40a.26.26,0,0,0-.08-.19l-.52-.52a.24.24,0,0,0-.19-.08H165a.24.24,0,0,0-.19.08l-.52.52a.27.27,0,0,0-.08.19v4.26a.27.27,0,0,0,.08.19l.52.52A.24.24,0,0,0,165,45h2.78a.25.25,0,0,0,.19-.08l.52-.52a.26.26,0,0,0,.08-.19Z" style="fill:#93a7cb"/>
      <path d="M179.53,46.55l-2.92-6.87v6.87h-1.55V37.69h2.26l2.92,6.87V37.69h1.55v8.86Z" style="fill:#93a7cb"/>
      <path d="M193.78,45.18l-1.09,1.09a.91.91,0,0,1-.66.28h-3.71a.91.91,0,0,1-.66-.28l-1.13-1.13,1.06-1.08.89.89a.25.25,0,0,0,.19.08h3a.25.25,0,0,0,.19-.08l.52-.52a.26.26,0,0,0,.08-.19V43.4a.28.28,0,0,0-.25-.26l-4.77-.64a1.07,1.07,0,0,1-.92-1V39.72a.91.91,0,0,1,.28-.66L187.9,38a.91.91,0,0,1,.66-.28h3.71a.91.91,0,0,1,.66.28l1.13,1.13L193,40.17l-.89-.89a.24.24,0,0,0-.19-.08h-3a.24.24,0,0,0-.19.08l-.52.52a.27.27,0,0,0-.08.19v.85a.27.27,0,0,0,.24.27l4.78.64a1.07,1.07,0,0,1,.92,1v1.74A.91.91,0,0,1,193.78,45.18Z" style="fill:#93a7cb"/>
      <path d="M80.27,12.3V27h-3.2V12.3H71.92v-3H85.41v3Z" style="fill:#0f206c"/>
      <path d="M106.39,24.3l-2.19,2.19a1.84,1.84,0,0,1-1.33.56H97.51a1.84,1.84,0,0,1-1.33-.56L94,24.3A1.84,1.84,0,0,1,93.43,23V9.26h3.2V22.44a.53.53,0,0,0,.16.37l1,1a.48.48,0,0,0,.37.16h4a.48.48,0,0,0,.37-.16l1-1a.52.52,0,0,0,.16-.37V9.26H107V23A1.84,1.84,0,0,1,106.39,24.3Z" style="fill:#0f206c"/>
      <path d="M130.17,24.78l-1.73,1.73a1.75,1.75,0,0,1-1.31.53h-9.92V9.26h9.92a1.75,1.75,0,0,1,1.28.53l1.76,1.76a1.79,1.79,0,0,1,.56,1.33v2.4a1.83,1.83,0,0,1-.56,1.33l-1.52,1.52,1.52,1.52a1.79,1.79,0,0,1,.56,1.33v2.45A1.83,1.83,0,0,1,130.17,24.78Zm-2.64-11.36a.48.48,0,0,0-.16-.37l-.59-.59a.48.48,0,0,0-.37-.16h-6v4.35h5.36a.52.52,0,0,0,.37-.16l1.23-1.23a.48.48,0,0,0,.16-.37Zm0,8a.48.48,0,0,0-.16-.37l-1.28-1.28a.49.49,0,0,0-.37-.16h-5.31V24h6a.52.52,0,0,0,.37-.16l.59-.59a.48.48,0,0,0,.16-.37Z" style="fill:#0f206c"/>
      <path d="M153.2,24.3,151,26.49a1.84,1.84,0,0,1-1.33.56h-5.36a1.84,1.84,0,0,1-1.33-.56L140.8,24.3a1.84,1.84,0,0,1-.56-1.33V9.26h3.2V22.44a.53.53,0,0,0,.16.37l1,1A.48.48,0,0,0,145,24h4a.48.48,0,0,0,.37-.16l1-1a.52.52,0,0,0,.16-.37V9.26h3.2V23A1.84,1.84,0,0,1,153.2,24.3Z" style="fill:#0f206c"/>
      <path d="M164,27V9.26h3.2V24h8.72v3Z" style="fill:#0f206c"/>
      <path d="M195.56,27l-1.68-4.45h-7.09L185.11,27h-3.2l6.59-17.79h3.79L198.81,27ZM190.33,12.7l-2.45,7h4.91Z" style="fill:#0f206c"/>
      <path d="M218.06,27l-5.25-6.77a.52.52,0,0,0-.45-.24H210.4v7h-3.2V9.26h9.92a1.75,1.75,0,0,1,1.28.53l1.76,1.76a1.79,1.79,0,0,1,.56,1.33v3.52a1.79,1.79,0,0,1-.56,1.33L218.4,19.5a1.75,1.75,0,0,1-1.28.53h-.64L222,27Zm-.53-13.63a.49.49,0,0,0-.16-.37l-.59-.59a.48.48,0,0,0-.37-.16h-6V17h6a.49.49,0,0,0,.37-.16l.59-.59a.49.49,0,0,0,.16-.37Z" style="fill:#0f206c"/>
      <path d="M17.75,44l0,0-.14,0,.05.05Z" style="fill:none"/>
      <path d="M44,33.09l0,0s0,.09,0,.13l.06-.05Z" style="fill:none"/>
      <path d="M17.46,44.72l-.05-.05A84.27,84.27,0,0,1,7,42.79v.05l8.64,6.4L26.54,51l.08-.08a85.36,85.36,0,0,1-9-6.21Z" style="fill:#0f206c"/>
      <path d="M6.32,17.47v-.13A85.11,85.11,0,0,1,8.2,6.93H8.15L1.76,15.59,0,26.48l.08.08a84.82,84.82,0,0,1,6.2-9Z" style="fill:#0f206c"/>
      <path d="M33.56,6.32h.13a84.73,84.73,0,0,1,10.41,1.9V8.18L35.44,1.75,24.56,0l-.08.08a85,85,0,0,1,9,6.21Z" style="fill:#0f206c"/>
      <path d="M44.6,33.41l-.06.05A86,86,0,0,1,42.45,43.9h.05l6.59-8.61L51,24.44,51,24.36a85.62,85.62,0,0,1-6.36,8.92Z" style="fill:#0f206c"/>
      <path d="M18.82,44.27a86.41,86.41,0,0,0,8.34,5.65l5.68-5.64A70.56,70.56,0,0,1,18.82,44.27Z" style="fill:#ea0029"/>
      <path d="M6.5,18.91A86.4,86.4,0,0,0,.85,27.25l5.64,5.68A70.54,70.54,0,0,1,6.5,18.91Z" style="fill:#ea0029"/>
      <path d="M32.05,6.42A87.33,87.33,0,0,0,23.71.77L18,6.41A70.4,70.4,0,0,1,32.05,6.42Z" style="fill:#ea0029"/>
      <path d="M44.29,31.93a87,87,0,0,0,5.65-8.34L44.3,17.91A70.36,70.36,0,0,1,44.29,31.93Z" style="fill:#ea0029"/>
      <path d="M6.6,33.39l.35,8.21a84.74,84.74,0,0,0,9.61,1.8A71,71,0,0,1,6.6,33.39Z" style="fill:#93a7cb"/>
      <path d="M17.45,6.53l-8.22.33a85.49,85.49,0,0,0-1.79,9.63A71,71,0,0,1,17.45,6.53Z" style="fill:#93a7cb"/>
      <path d="M44.2,17.45l-.33-8.18a85.32,85.32,0,0,0-9.63-1.82A71.07,71.07,0,0,1,44.2,17.45Z" style="fill:#93a7cb"/>
      <path d="M33.18,44l8.16-.26A86.28,86.28,0,0,0,43.19,34,71.1,71.1,0,0,1,33.18,44Z" style="fill:#93a7cb"/>
    </symbol>
    <symbol id="brand-white" viewBox="0 0 221.98 51">
      <title>brand-white</title>
      <path d="M106.37,45.18l-1.09,1.09a.91.91,0,0,1-.66.28h-3.71a.91.91,0,0,1-.66-.28l-1.13-1.13,1.06-1.08.89.89a.25.25,0,0,0,.19.08h3a.25.25,0,0,0,.19-.08l.52-.52a.26.26,0,0,0,.08-.19V43.4a.28.28,0,0,0-.25-.26L100,42.5a1.07,1.07,0,0,1-.92-1V39.72a.91.91,0,0,1,.28-.66L100.48,38a.91.91,0,0,1,.66-.28h3.71a.91.91,0,0,1,.66.28l1.13,1.13-1.06,1.08-.89-.89a.24.24,0,0,0-.19-.08h-3a.24.24,0,0,0-.19.08l-.52.52a.27.27,0,0,0-.08.19v.85a.27.27,0,0,0,.24.27l4.78.64a1.07,1.07,0,0,1,.92,1v1.74A.91.91,0,0,1,106.37,45.18Z" style="fill:#fff"/>
      <path d="M118.27,45.18l-1.09,1.09a.91.91,0,0,1-.66.28H113a.91.91,0,0,1-.66-.28l-1.09-1.09a.91.91,0,0,1-.28-.66v-4.8a.91.91,0,0,1,.28-.66L112.38,38a.91.91,0,0,1,.66-.28h3.47a.91.91,0,0,1,.66.28l1.09,1.09a.91.91,0,0,1,.28.66v4.8A.91.91,0,0,1,118.27,45.18ZM117,40a.26.26,0,0,0-.08-.19l-.52-.52a.24.24,0,0,0-.19-.08h-2.78a.24.24,0,0,0-.19.08l-.52.52a.27.27,0,0,0-.08.19v4.26a.27.27,0,0,0,.08.19l.52.52a.24.24,0,0,0,.19.08h2.78a.25.25,0,0,0,.19-.08l.52-.52a.26.26,0,0,0,.08-.19Z" style="fill:#fff"/>
      <path d="M123.47,46.55V37.69h1.59V45h4.34v1.51Z" style="fill:#fff"/>
      <path d="M139.58,45.18l-1.09,1.09a.91.91,0,0,1-.66.28h-2.67a.91.91,0,0,1-.66-.28l-1.09-1.09a.91.91,0,0,1-.28-.66V37.69h1.59v6.56a.27.27,0,0,0,.08.19l.52.52a.24.24,0,0,0,.19.08h2a.24.24,0,0,0,.19-.08l.52-.52a.27.27,0,0,0,.08-.19V37.69h1.59v6.83A.91.91,0,0,1,139.58,45.18Z" style="fill:#fff"/>
      <path d="M148,39.21v7.34h-1.59V39.21h-2.56V37.69h6.72v1.51Z" style="fill:#fff"/>
      <path d="M153.82,46.55V45.14h1.59v-6h-1.59V37.69h4.78V39.1H157v6h1.59v1.41Z" style="fill:#fff"/>
      <path d="M169.85,45.18l-1.09,1.09a.91.91,0,0,1-.66.28h-3.47a.91.91,0,0,1-.66-.28l-1.09-1.09a.91.91,0,0,1-.28-.66v-4.8a.91.91,0,0,1,.28-.66L164,38a.91.91,0,0,1,.66-.28h3.47a.91.91,0,0,1,.66.28l1.09,1.09a.91.91,0,0,1,.28.66v4.8A.91.91,0,0,1,169.85,45.18ZM168.54,40a.26.26,0,0,0-.08-.19l-.52-.52a.24.24,0,0,0-.19-.08H165a.24.24,0,0,0-.19.08l-.52.52a.27.27,0,0,0-.08.19v4.26a.27.27,0,0,0,.08.19l.52.52A.24.24,0,0,0,165,45h2.78a.25.25,0,0,0,.19-.08l.52-.52a.26.26,0,0,0,.08-.19Z" style="fill:#fff"/>
      <path d="M179.53,46.55l-2.92-6.87v6.87h-1.55V37.69h2.26l2.92,6.87V37.69h1.55v8.86Z" style="fill:#fff"/>
      <path d="M193.78,45.18l-1.09,1.09a.91.91,0,0,1-.66.28h-3.71a.91.91,0,0,1-.66-.28l-1.13-1.13,1.06-1.08.89.89a.25.25,0,0,0,.19.08h3a.25.25,0,0,0,.19-.08l.52-.52a.26.26,0,0,0,.08-.19V43.4a.28.28,0,0,0-.25-.26l-4.77-.64a1.07,1.07,0,0,1-.92-1V39.72a.91.91,0,0,1,.28-.66L187.9,38a.91.91,0,0,1,.66-.28h3.71a.91.91,0,0,1,.66.28l1.13,1.13L193,40.17l-.89-.89a.24.24,0,0,0-.19-.08h-3a.24.24,0,0,0-.19.08l-.52.52a.27.27,0,0,0-.08.19v.85a.27.27,0,0,0,.24.27l4.78.64a1.07,1.07,0,0,1,.92,1v1.74A.91.91,0,0,1,193.78,45.18Z" style="fill:#fff"/>
      <path d="M80.27,12.3V27h-3.2V12.3H71.92v-3H85.41v3Z" style="fill:#fff"/>
      <path d="M106.39,24.3l-2.19,2.19a1.84,1.84,0,0,1-1.33.56H97.51a1.84,1.84,0,0,1-1.33-.56L94,24.3A1.84,1.84,0,0,1,93.43,23V9.26h3.2V22.44a.53.53,0,0,0,.16.37l1,1a.48.48,0,0,0,.37.16h4a.48.48,0,0,0,.37-.16l1-1a.52.52,0,0,0,.16-.37V9.26H107V23A1.84,1.84,0,0,1,106.39,24.3Z" style="fill:#fff"/>
      <path d="M130.17,24.78l-1.73,1.73a1.75,1.75,0,0,1-1.31.53h-9.92V9.26h9.92a1.75,1.75,0,0,1,1.28.53l1.76,1.76a1.79,1.79,0,0,1,.56,1.33v2.4a1.83,1.83,0,0,1-.56,1.33l-1.52,1.52,1.52,1.52a1.79,1.79,0,0,1,.56,1.33v2.45A1.83,1.83,0,0,1,130.17,24.78Zm-2.64-11.36a.48.48,0,0,0-.16-.37l-.59-.59a.48.48,0,0,0-.37-.16h-6v4.35h5.36a.52.52,0,0,0,.37-.16l1.23-1.23a.48.48,0,0,0,.16-.37Zm0,8a.48.48,0,0,0-.16-.37l-1.28-1.28a.49.49,0,0,0-.37-.16h-5.31V24h6a.52.52,0,0,0,.37-.16l.59-.59a.48.48,0,0,0,.16-.37Z" style="fill:#fff"/>
      <path d="M153.2,24.3,151,26.49a1.84,1.84,0,0,1-1.33.56h-5.36a1.84,1.84,0,0,1-1.33-.56L140.8,24.3a1.84,1.84,0,0,1-.56-1.33V9.26h3.2V22.44a.53.53,0,0,0,.16.37l1,1A.48.48,0,0,0,145,24h4a.48.48,0,0,0,.37-.16l1-1a.52.52,0,0,0,.16-.37V9.26h3.2V23A1.84,1.84,0,0,1,153.2,24.3Z" style="fill:#fff"/>
      <path d="M164,27V9.26h3.2V24h8.72v3Z" style="fill:#fff"/>
      <path d="M195.56,27l-1.68-4.45h-7.09L185.11,27h-3.2l6.59-17.79h3.79L198.81,27ZM190.33,12.7l-2.45,7h4.91Z" style="fill:#fff"/>
      <path d="M218.06,27l-5.25-6.77a.52.52,0,0,0-.45-.24H210.4v7h-3.2V9.26h9.92a1.75,1.75,0,0,1,1.28.53l1.76,1.76a1.79,1.79,0,0,1,.56,1.33v3.52a1.79,1.79,0,0,1-.56,1.33L218.4,19.5a1.75,1.75,0,0,1-1.28.53h-.64L222,27Zm-.53-13.63a.49.49,0,0,0-.16-.37l-.59-.59a.48.48,0,0,0-.37-.16h-6V17h6a.49.49,0,0,0,.37-.16l.59-.59a.49.49,0,0,0,.16-.37Z" style="fill:#fff"/>
      <path d="M17.75,44l0,0-.14,0,.05.05Z" style="fill:#fff"/>
      <path d="M44,33.09l0,0s0,.09,0,.13l.06-.05Z" style="fill:#fff"/>
      <path d="M17.46,44.72l-.05-.05A84.27,84.27,0,0,1,7,42.79v.05l8.64,6.4L26.54,51l.08-.08a85.36,85.36,0,0,1-9-6.21Z" style="fill:#fff"/>
      <path d="M6.32,17.47v-.13A85.11,85.11,0,0,1,8.2,6.93H8.15L1.76,15.59,0,26.48l.08.08a84.82,84.82,0,0,1,6.2-9Z" style="fill:#fff"/>
      <path d="M33.56,6.32h.13a84.73,84.73,0,0,1,10.41,1.9V8.18L35.44,1.75,24.56,0l-.08.08a85,85,0,0,1,9,6.21Z" style="fill:#fff"/>
      <path d="M44.6,33.41l-.06.05A86,86,0,0,1,42.45,43.9h.05l6.59-8.61L51,24.44,51,24.36a85.62,85.62,0,0,1-6.36,8.92Z" style="fill:#fff"/>
      <path d="M18.82,44.27a86.41,86.41,0,0,0,8.34,5.65l5.68-5.64A70.56,70.56,0,0,1,18.82,44.27Z" style="fill:#fff"/>
      <path d="M6.5,18.91A86.4,86.4,0,0,0,.85,27.25l5.64,5.68A70.54,70.54,0,0,1,6.5,18.91Z" style="fill:#fff"/>
      <path d="M32.05,6.42A87.33,87.33,0,0,0,23.71.77L18,6.41A70.4,70.4,0,0,1,32.05,6.42Z" style="fill:#fff"/>
      <path d="M44.29,31.93a87,87,0,0,0,5.65-8.34L44.3,17.91A70.36,70.36,0,0,1,44.29,31.93Z" style="fill:#fff"/>
      <path d="M6.6,33.39l.35,8.21a84.74,84.74,0,0,0,9.61,1.8A71,71,0,0,1,6.6,33.39Z" style="fill:#fff"/>
      <path d="M17.45,6.53l-8.22.33a85.49,85.49,0,0,0-1.79,9.63A71,71,0,0,1,17.45,6.53Z" style="fill:#fff"/>
      <path d="M44.2,17.45l-.33-8.18a85.32,85.32,0,0,0-9.63-1.82A71.07,71.07,0,0,1,44.2,17.45Z" style="fill:#fff"/>
      <path d="M33.18,44l8.16-.26A86.28,86.28,0,0,0,43.19,34,71.1,71.1,0,0,1,33.18,44Z" style="fill:#fff"/>
    </symbol>
    <symbol id="stacked-white-brand" viewBox="0 0 137.59 95.03">
      <title>Brand (stacked)</title>
      <path d="M31.48,93.77l-1,1a.84.84,0,0,1-.61.26H26.45a.84.84,0,0,1-.61-.26l-1-1,1-1,.82.82a.22.22,0,0,0,.17.07h2.78a.22.22,0,0,0,.17-.07l.48-.48a.24.24,0,0,0,.07-.17v-.78a.26.26,0,0,0-.23-.24l-4.39-.59a1,1,0,0,1-.84-1v-1.6a.84.84,0,0,1,.26-.61l1-1a.84.84,0,0,1,.61-.26h3.41a.84.84,0,0,1,.61.26l1,1-1,1-.82-.82a.22.22,0,0,0-.17-.07H27a.22.22,0,0,0-.17.07l-.48.48a.24.24,0,0,0-.07.17v.78a.25.25,0,0,0,.22.24l4.4.59a1,1,0,0,1,.84,1v1.6A.84.84,0,0,1,31.48,93.77Z" style="fill:#fff"/>
      <path d="M42.43,93.77l-1,1a.84.84,0,0,1-.61.26H37.62a.84.84,0,0,1-.61-.26l-1-1a.84.84,0,0,1-.26-.61V88.75a.84.84,0,0,1,.26-.61l1-1a.84.84,0,0,1,.61-.26h3.19a.84.84,0,0,1,.61.26l1,1a.84.84,0,0,1,.26.61v4.41A.84.84,0,0,1,42.43,93.77ZM41.22,89a.24.24,0,0,0-.07-.17l-.48-.48a.22.22,0,0,0-.17-.07H37.94a.22.22,0,0,0-.17.07l-.48.48a.24.24,0,0,0-.07.17v3.92a.24.24,0,0,0,.07.17l.48.48a.22.22,0,0,0,.17.07H40.5a.22.22,0,0,0,.17-.07l.48-.48a.24.24,0,0,0,.07-.17Z" style="fill:#fff"/>
      <path d="M47.22,95V86.88h1.47v6.76h4V95Z" style="fill:#fff"/>
      <path d="M62,93.77l-1,1a.84.84,0,0,1-.61.26H58a.84.84,0,0,1-.61-.26l-1-1a.84.84,0,0,1-.26-.61V86.88h1.47v6a.24.24,0,0,0,.07.17l.48.48a.22.22,0,0,0,.17.07h1.82a.22.22,0,0,0,.17-.07l.48-.48a.24.24,0,0,0,.07-.17v-6H62.3v6.28A.84.84,0,0,1,62,93.77Z" style="fill:#fff"/>
      <path d="M69.8,88.27V95H68.33V88.27H66V86.88h6.19v1.39Z" style="fill:#fff"/>
      <path d="M75.15,95v-1.3h1.47V88.17H75.15v-1.3h4.4v1.3H78.09v5.56h1.47V95Z" style="fill:#fff"/>
      <path d="M89.91,93.77l-1,1a.84.84,0,0,1-.61.26H85.1a.84.84,0,0,1-.61-.26l-1-1a.84.84,0,0,1-.26-.61V88.75a.84.84,0,0,1,.26-.61l1-1a.84.84,0,0,1,.61-.26h3.19a.84.84,0,0,1,.61.26l1,1a.84.84,0,0,1,.26.61v4.41A.84.84,0,0,1,89.91,93.77ZM88.69,89a.24.24,0,0,0-.07-.17l-.48-.48a.22.22,0,0,0-.17-.07H85.42a.22.22,0,0,0-.17.07l-.48.48a.24.24,0,0,0-.07.17v3.92a.24.24,0,0,0,.07.17l.48.48a.22.22,0,0,0,.17.07H88a.22.22,0,0,0,.17-.07l.48-.48a.24.24,0,0,0,.07-.17Z" style="fill:#fff"/>
      <path d="M98.81,95l-2.69-6.32V95H94.69V86.88h2.08l2.69,6.32V86.88h1.43V95Z" style="fill:#fff"/>
      <path d="M111.93,93.77l-1,1a.84.84,0,0,1-.61.26H106.9a.84.84,0,0,1-.61-.26l-1-1,1-1,.82.82a.22.22,0,0,0,.17.07H110a.22.22,0,0,0,.17-.07l.48-.48a.24.24,0,0,0,.07-.17v-.78a.26.26,0,0,0-.23-.24l-4.39-.59a1,1,0,0,1-.84-1v-1.6a.84.84,0,0,1,.26-.61l1-1a.84.84,0,0,1,.61-.26h3.41a.84.84,0,0,1,.61.26l1,1-1,1-.82-.82a.22.22,0,0,0-.17-.07h-2.77a.22.22,0,0,0-.17.07l-.48.48a.24.24,0,0,0-.07.17v.78a.25.25,0,0,0,.22.24l4.4.59a1,1,0,0,1,.84,1v1.6A.84.84,0,0,1,111.93,93.77Z" style="fill:#fff"/>
      <path d="M7.65,63.14V76.66H4.72V63.14H0V60.36H12.37v2.79Z" style="fill:#fff"/>
      <path d="M31.61,74.15l-2,2a1.68,1.68,0,0,1-1.22.51H23.47a1.68,1.68,0,0,1-1.22-.51l-2-2a1.68,1.68,0,0,1-.51-1.22V60.36h2.93V72.43a.48.48,0,0,0,.15.34l1,1a.44.44,0,0,0,.34.15h3.64a.44.44,0,0,0,.34-.15l1-1a.48.48,0,0,0,.15-.34V60.36h2.93V72.92A1.68,1.68,0,0,1,31.61,74.15Z" style="fill:#fff"/>
      <path d="M53.41,74.59l-1.59,1.59a1.61,1.61,0,0,1-1.2.49h-9.1V60.36h9.1a1.61,1.61,0,0,1,1.17.49l1.61,1.61a1.64,1.64,0,0,1,.51,1.22v2.2a1.68,1.68,0,0,1-.51,1.22L52,68.5l1.39,1.39a1.64,1.64,0,0,1,.51,1.22v2.25A1.68,1.68,0,0,1,53.41,74.59ZM51,64.17a.45.45,0,0,0-.15-.34l-.54-.54a.44.44,0,0,0-.34-.15h-5.5v4h4.91a.48.48,0,0,0,.34-.15l1.12-1.12a.44.44,0,0,0,.15-.34Zm0,7.36a.44.44,0,0,0-.15-.34L49.67,70a.44.44,0,0,0-.34-.15H44.46v4H50a.48.48,0,0,0,.34-.15l.54-.54a.45.45,0,0,0,.15-.34Z" style="fill:#fff"/>
      <path d="M74.53,74.15l-2,2a1.68,1.68,0,0,1-1.22.51H66.39a1.68,1.68,0,0,1-1.22-.51l-2-2a1.68,1.68,0,0,1-.51-1.22V60.36h2.93V72.43a.48.48,0,0,0,.15.34l1,1a.44.44,0,0,0,.34.15h3.64a.44.44,0,0,0,.34-.15l1-1a.48.48,0,0,0,.15-.34V60.36H75V72.92A1.68,1.68,0,0,1,74.53,74.15Z" style="fill:#fff"/>
      <path d="M84.45,76.66V60.36h2.93V73.88h8v2.79Z" style="fill:#fff"/>
      <path d="M113.37,76.66l-1.54-4.08h-6.5l-1.54,4.08h-2.93l6-16.31h3.47l6,16.31Zm-4.79-13.15L106.33,70h4.5Z" style="fill:#fff"/>
      <path d="M134,76.66l-4.82-6.21a.48.48,0,0,0-.42-.22H127v6.43H124V60.36h9.1a1.61,1.61,0,0,1,1.17.49l1.61,1.61a1.64,1.64,0,0,1,.51,1.22v3.23a1.64,1.64,0,0,1-.51,1.22l-1.61,1.61a1.61,1.61,0,0,1-1.17.49h-.59l5,6.43Zm-.49-12.49a.45.45,0,0,0-.15-.34l-.54-.54a.44.44,0,0,0-.34-.15H127v4.3h5.5a.44.44,0,0,0,.34-.15l.54-.54a.44.44,0,0,0,.15-.34Z" style="fill:#fff"/>
      <path d="M63,40.36l0,0-.12,0,0,0Z" style="fill:#fff"/>
      <path d="M52.95,16.14l0,0L53,16l-.05.05Z" style="fill:#fff"/>
      <path d="M87,30.34l0,0s0,.08,0,.12l.05,0Z" style="fill:#fff"/>
      <path d="M62.7,41l0,0a77.27,77.27,0,0,1-9.53-1.72v0L61,45.15l10,1.61.07-.07A78.27,78.27,0,0,1,62.82,41Z" style="fill:#fff"/>
      <path d="M52.49,16V15.9a78,78,0,0,1,1.71-9.55h0L48.3,14.3l-1.61,10,.07.07a77.78,77.78,0,0,1,5.69-8.28Z" style="fill:#fff"/>
      <path d="M77.46,5.8h.12a77.69,77.69,0,0,1,9.55,1.74v0L79.19,1.61,69.21,0l-.07.07a78,78,0,0,1,8.28,5.69Z" style="fill:#fff"/>
      <path d="M87.58,30.63l-.05,0a78.81,78.81,0,0,1-1.92,9.58h0l6-7.9,1.78-10-.07-.07a78.51,78.51,0,0,1-5.83,8.18Z" style="fill:#fff"/>
      <path d="M63.95,40.59a79.23,79.23,0,0,0,7.65,5.18L76.8,40.6A64.7,64.7,0,0,1,63.95,40.59Z" style="fill:#fff"/>
      <path d="M52.65,17.34A79.22,79.22,0,0,0,47.47,25l5.17,5.21A64.67,64.67,0,0,1,52.65,17.34Z" style="fill:#fff"/>
      <path d="M76.08,5.89A80.07,80.07,0,0,0,68.43.71L63.22,5.88A64.55,64.55,0,0,1,76.08,5.89Z" style="fill:#fff"/>
      <path d="M87.3,29.28a79.76,79.76,0,0,0,5.18-7.65l-5.17-5.21A64.51,64.51,0,0,1,87.3,29.28Z" style="fill:#fff"/>
      <path d="M52.74,30.62l.32,7.53a77.7,77.7,0,0,0,8.81,1.65A65.15,65.15,0,0,1,52.74,30.62Z" style="fill:#fff"/>
      <path d="M62.69,6l-7.53.3a78.39,78.39,0,0,0-1.64,8.83A65.05,65.05,0,0,1,62.69,6Z" style="fill:#fff"/>
      <path d="M87.22,16l-.3-7.5a78.23,78.23,0,0,0-8.83-1.67A65.17,65.17,0,0,1,87.22,16Z" style="fill:#fff"/>
      <path d="M77.12,40.35l7.48-.24a79.11,79.11,0,0,0,1.69-8.89A65.19,65.19,0,0,1,77.12,40.35Z" style="fill:#fff"/>
    </symbol>
    <symbol id="logo" viewBox="0 0 564.29 563.89">
      <title>Logo</title>
      <path d="M193.1,494.41l-.59-.57a931.76,931.76,0,0,1-114.9-20.7v.58l95.51,70.77,120.36,19.4.86-.86a943.77,943.77,0,0,1-99.84-68.61Z" style="fill:#e9edf5"/>
      <path d="M69.93,193.2l.13-1.42A941,941,0,0,1,90.65,76.63h-.56L19.41,172.41,0,292.77l.85.83a937.88,937.88,0,0,1,68.59-99.82Z" style="fill:#e9edf5"/>
      <path d="M371.09,69.89l1.43.16c38.25,4.51,73.56,10.93,115.15,21v-.58L391.9,19.4,271.52,0l-.86.83c36.48,22,69.46,44.51,99.86,68.62Z" style="fill:#e9edf5"/>
      <path d="M493.13,369.39l-.64.57c-5.18,38.19-12.36,74.07-23.14,115.47h.57l72.91-95.22,21.45-120-.8-.85C540.87,305.46,517.77,338,493.16,368Z" style="fill:#e9edf5"/>
      <path d="M208.11,489.46a955.36,955.36,0,0,0,92.23,62.49l62.8-62.36A780.13,780.13,0,0,1,208.11,489.46Z" style="fill:#e9edf5"/>
      <path d="M71.87,209.1a955.32,955.32,0,0,0-62.5,92.23l62.38,62.81A779.88,779.88,0,0,1,71.87,209.1Z" style="fill:#e9edf5"/>
      <path d="M354.38,71a965.55,965.55,0,0,0-92.25-62.5L199.32,70.9A778.41,778.41,0,0,1,354.38,71Z" style="fill:#e9edf5"/>
      <path d="M489.72,353.08a961.83,961.83,0,0,0,62.51-92.24L489.83,198A777.91,777.91,0,0,1,489.72,353.08Z" style="fill:#e9edf5"/>
      <path d="M72.92,369.19l3.85,90.75A937,937,0,0,0,183,479.8,785.58,785.58,0,0,1,72.92,369.19Z" style="fill:#e9edf5"/>
      <path d="M193,72.19l-90.85,3.6A945.28,945.28,0,0,0,82.37,182.31,784.47,784.47,0,0,1,193,72.19Z" style="fill:#e9edf5"/>
      <path d="M488.68,193l-3.6-90.42A943.4,943.4,0,0,0,378.57,82.37,785.83,785.83,0,0,1,488.68,193Z" style="fill:#e9edf5"/>
      <path d="M366.9,486.54l90.24-2.91a953.92,953.92,0,0,0,20.37-107.17A786.1,786.1,0,0,1,366.9,486.54Z" style="fill:#e9edf5"/>
    </symbol>
    <symbol id="menu" width="30.54" height="34.8" viewBox="0 0 30.54 34.8">
      <title>menu</title>
      <line x1="4.38" y1="1" x2="25.86" y2="1" style="fill:none;stroke:currentColor;stroke-miterlimit:10;stroke-width:2px"/>
      <line x1="4.38" y1="7.9" x2="25.86" y2="7.9" style="fill:none;stroke:currentColor;stroke-miterlimit:10;stroke-width:2px"/>
      <line x1="4.38" y1="14.81" x2="25.86" y2="14.81" style="fill:none;stroke:currentColor;stroke-miterlimit:10;stroke-width:2px"/>
      <path d="M6.79,31.55v-5.3l-1.63,5.3H3.92l-1.63-5.3v5.3H1.12V24.89H3l1.58,5.17,1.58-5.17H8v6.67Z" style="fill:currentColor"/>
      <path d="M10.31,31.55V24.89h4.47V26H11.51v1.62h3.27v1.14H11.51v1.63h3.27v1.14Z" style="fill:currentColor"/>
      <path d="M20.32,31.55l-2.2-5.17v5.17H17V24.89h1.7l2.2,5.17V24.89H22v6.67Z" style="fill:currentColor"/>
      <path d="M29.15,30.53l-.82.82a.69.69,0,0,1-.5.21h-2a.69.69,0,0,1-.5-.21l-.82-.82a.69.69,0,0,1-.21-.5V24.89h1.2v4.94a.2.2,0,0,0,.06.14l.39.39a.18.18,0,0,0,.14.06h1.49a.18.18,0,0,0,.14-.06L28.1,30a.2.2,0,0,0,.06-.14V24.89h1.2V30A.69.69,0,0,1,29.15,30.53Z" style="fill:currentColor"/>
    </symbol>
    <symbol id="search" viewBox="0 0 24 32">
      <title>ion-android-search</title>
      <path fill="currentColor" d="M17.125 19.063l6.875 6.875-2.063 2.063-6.813-6.875v-1.063l-0.438-0.375c-1.563 1.313-3.625 2.125-5.813 2.125-4.938 0-8.875-3.938-8.875-8.875s3.938-8.938 8.813-8.938c4.938 0 8.875 4 8.875 8.938 0 2.25-0.813 4.25-2.125 5.813l0.438 0.313h1.125zM8.875 19.063c3.438 0 6.188-2.688 6.188-6.125s-2.75-6.188-6.188-6.188-6.125 2.75-6.125 6.188 2.688 6.125 6.125 6.125z"></path>
    </symbol>
    <symbol id="close" viewBox="0 0 24 32">
      <title>ion-close</title>
      <path fill="currentColor" d="M23.75 24.188c0.188 0.188 0.25 0.375 0.25 0.625s-0.063 0.438-0.25 0.625l-2.375 2.313c-0.188 0.188-0.313 0.25-0.563 0.25s-0.438-0.063-0.625-0.25l-8.188-8.188-8.188 8.188c-0.188 0.188-0.313 0.25-0.563 0.25s-0.438-0.063-0.625-0.25l-2.375-2.313c-0.188-0.188-0.25-0.375-0.25-0.625s0.063-0.438 0.25-0.625l8.25-8.188-8.25-8.125c-0.313-0.313-0.313-0.938 0-1.25l2.313-2.375c0.188-0.125 0.375-0.25 0.625-0.25s0.438 0.063 0.625 0.25l8.188 8.125 8.188-8.125c0.188-0.125 0.375-0.25 0.625-0.25s0.438 0.063 0.625 0.25l2.313 2.375c0.313 0.313 0.313 0.875 0 1.188l-8.25 8.125z"></path>
    </symbol>
    <symbol id="close-menu" width="34.77" height="35.2" viewBox="0 0 34.77 35.2">
      <title>close</title>
      <line x1="9.64" y1="0.71" x2="24.83" y2="15.9" style="fill:none;stroke:#fff;stroke-miterlimit:10;stroke-width:2px"/>
      <line x1="9.64" y1="15.9" x2="24.83" y2="0.71" style="fill:none;stroke:#fff;stroke-miterlimit:10;stroke-width:2px"/>
      <path d="M5,31.74a.69.69,0,0,1-.5.21H2.37a.69.69,0,0,1-.5-.21L1,30.92a.69.69,0,0,1-.21-.5V26.81a.69.69,0,0,1,.21-.5l.82-.82a.69.69,0,0,1,.5-.21H4.54a.69.69,0,0,1,.5.21l.87.87-.81.8-.68-.68a.18.18,0,0,0-.14-.06H2.63a.18.18,0,0,0-.14.06l-.39.39A.2.2,0,0,0,2,27v3.21a.2.2,0,0,0,.06.14l.39.39a.18.18,0,0,0,.14.06H4.28a.18.18,0,0,0,.14-.06l.68-.68.81.8Z" style="fill:#fff"/>
      <path d="M7.83,32V25.29H9v5.53h3.27V32Z" style="fill:#fff"/>
      <path d="M19.39,30.92l-.82.82a.69.69,0,0,1-.5.21H15.46a.69.69,0,0,1-.5-.21l-.82-.82a.69.69,0,0,1-.21-.5V26.81a.69.69,0,0,1,.21-.5L15,25.5a.69.69,0,0,1,.5-.21h2.61a.69.69,0,0,1,.5.21l.82.82a.69.69,0,0,1,.21.5v3.61A.69.69,0,0,1,19.39,30.92ZM18.4,27a.2.2,0,0,0-.06-.14L18,26.48a.18.18,0,0,0-.14-.06H15.72a.18.18,0,0,0-.14.06l-.39.39a.2.2,0,0,0-.06.14v3.21a.2.2,0,0,0,.06.14l.39.39a.18.18,0,0,0,.14.06h2.09a.18.18,0,0,0,.14-.06l.39-.39a.2.2,0,0,0,.06-.14Z" style="fill:#fff"/>
      <path d="M27,30.92l-.82.82a.68.68,0,0,1-.5.21H22.87a.69.69,0,0,1-.5-.21l-.85-.85.8-.81.67.67a.18.18,0,0,0,.14.06H25.4a.18.18,0,0,0,.14-.06l.39-.39a.2.2,0,0,0,.06-.14v-.64a.21.21,0,0,0-.19-.2l-3.59-.48a.8.8,0,0,1-.69-.78V26.81a.69.69,0,0,1,.21-.5l.82-.82a.69.69,0,0,1,.5-.21h2.79a.69.69,0,0,1,.5.21l.85.85-.8.81-.67-.67a.18.18,0,0,0-.14-.06H23.31a.18.18,0,0,0-.14.06l-.39.39a.19.19,0,0,0-.06.14v.64a.2.2,0,0,0,.18.2l3.6.48a.8.8,0,0,1,.69.78v1.31A.69.69,0,0,1,27,30.92Z" style="fill:#fff"/>
      <path d="M29.26,32V25.29h4.47v1.14H30.46V28h3.27v1.14H30.46v1.63h3.27V32Z" style="fill:#fff"/>
    </symbol>
  </defs>
</svg>
